<svg id="Layer_1" data-name="Layer 1" xmlns="http://www.w3.org/2000/svg" viewBox="0 0 512 492.27"><defs><style>.cls-1{fill:#fff;}</style></defs><title>categories-science_culture</title><path class="cls-1" d="M474.34,158.93a54.43,54.43,0,0,0-68.65,35A54.11,54.11,0,0,0,403,209.35l-73.93,24a84.85,84.85,0,0,0-54.95-39.93V115.72a54.48,54.48,0,1,0-36.32,0v77.72a84.85,84.85,0,0,0-55,39.93l-73.93-24a54.49,54.49,0,1,0-11.22,34.54l73.92,24q-.41,4.11-.41,8.31a84.41,84.41,0,0,0,21.41,56.28L147,395.4a54.5,54.5,0,1,0,29.38,21.35L222,353.87a84.81,84.81,0,0,0,67.94,0l45.68,62.88a54.67,54.67,0,1,0,29.4-21.34L319.34,332.5a84.39,84.39,0,0,0,21.41-56.28q0-4.2-.41-8.31l73.93-24a54.48,54.48,0,1,0,60.07-85ZM71.77,216.36a18.16,18.16,0,1,1-17.29-23.79h0a18.22,18.22,0,0,1,17.28,23.79Zm77,236.88a18.16,18.16,0,1,1-17.29-23.79h0a18.22,18.22,0,0,1,17.28,23.79Zm89.1-388.89A18.16,18.16,0,1,1,256,82.51,18.18,18.18,0,0,1,237.84,64.35ZM256,324.65a48.43,48.43,0,1,1,48.43-48.43A48.49,48.49,0,0,1,256,324.65ZM363.26,442a18.14,18.14,0,0,1,17.27-12.56h0A18.17,18.17,0,1,1,363.26,442ZM474.77,216.36a18.16,18.16,0,1,1-17.28-23.79h0a18.22,18.22,0,0,1,17.28,23.79Z" transform="translate(0 -9.86)"/></svg>