<svg id="Capa_1" data-name="Capa 1" xmlns="http://www.w3.org/2000/svg" viewBox="0 0 512 394.15"><defs><style>.cls-1{fill:#fff;}</style></defs><title>categories-social_cohesion</title><path class="cls-1" d="M506.78,243.85l-20.44-29.2a10.05,10.05,0,0,0-16.47,11.53l20.44,29.19a8.85,8.85,0,1,1-14.5,10.15l-41.2-58.83a10.05,10.05,0,0,0-18.15,7.37L437.7,345.27H426.38a10.05,10.05,0,0,0-10.05,10.05V433H389.44V355.32a10.05,10.05,0,1,0-20.1,0V433h-26.9V355.32a10.05,10.05,0,0,0-10.05-10.05H321.08l21.24-131.2a10.06,10.06,0,0,0-18.16-7.37L283,265.52a8.85,8.85,0,1,1-14.51-10.15l65.84-94a11.09,11.09,0,0,1,9.08-4.74h72a11.09,11.09,0,0,1,9.07,4.73l15.33,21.9a10,10,0,0,0,16.47-11.52L440.93,149.8a31.25,31.25,0,0,0-22.22-13.11,48.84,48.84,0,1,0-78.64,0,31.25,31.25,0,0,0-22.22,13.12L256,238.15l-61.86-88.34a31.19,31.19,0,0,0-22.23-13.12,48.84,48.84,0,1,0-78.63,0,31.19,31.19,0,0,0-22.22,13.12l-65.84,94a29,29,0,0,0,47.43,33.21l22.91-32.71V443a10.05,10.05,0,0,0,10,10.05h94A10.05,10.05,0,0,0,189.65,443V244.33l22.91,32.72a29,29,0,0,0,40.32,7.11,28.35,28.35,0,0,0,3.11-2.53,29.68,29.68,0,0,0,3.12,2.53,29,29,0,0,0,40.33-7.11l16-22.88-16.11,99.54a10,10,0,0,0,9.92,11.65h13.07V443a10.05,10.05,0,0,0,10.05,10.05h94A10.05,10.05,0,0,0,436.43,443V365.36H449.5a10,10,0,0,0,9.92-11.65l-16.11-99.57,16,22.91a28.95,28.95,0,0,0,47.43-33.2ZM379.39,79a28.74,28.74,0,1,1-28.74,28.74A28.77,28.77,0,0,1,379.39,79ZM132.6,79a28.74,28.74,0,1,1-28.74,28.74A28.77,28.77,0,0,1,132.6,79ZM241.35,267.7A8.86,8.86,0,0,1,229,265.52l-41.19-58.83a10,10,0,0,0-18.28,5.77V433h-26.9V318.37a10.05,10.05,0,0,0-20.1,0V433H95.66V212.47a10,10,0,0,0-18.28-5.77l-41.2,58.82a8.85,8.85,0,1,1-14.49-10.15l65.84-94a11.08,11.08,0,0,1,9.07-4.73h72a11.11,11.11,0,0,1,9.08,4.73l65.85,94a8.71,8.71,0,0,1,1.6,5.05A8.87,8.87,0,0,1,241.35,267.7Z" transform="translate(0 -58.93)"/><path class="cls-1" d="M461.75,190.18c-12.93,0-12.95,20.1,0,20.1S474.71,190.18,461.75,190.18Z" transform="translate(0 -58.93)"/></svg>