<svg id="Capa_1" data-name="Capa 1" xmlns="http://www.w3.org/2000/svg" viewBox="0 0 491.52 492.79"><defs><style>.cls-1{fill:#fff;}</style></defs><title>categories-local</title><path class="cls-1" d="M448.54,372.51l-36.27-24.17a119.15,119.15,0,0,0,33.66-3.13,84.19,84.19,0,0,0,8.73-2.65c23.33-8.54,31-37.32,17.06-57.23-1.52-2.16-3.13-4.4-5.48-7.62-2.9-4-4.44-6.08-5.91-8.11-4.91-6.79-8.74-12.3-12.43-18-19.49-30.06-30.19-58.49-30.81-90.58-.39-15.44-4.5-37-16-59-9.74-18.69-23.55-34.18-42-45C338,46.73,319.07,41.13,298.73,41l-1,0-1.09,0a104.26,104.26,0,0,0-13.91,1,112.88,112.88,0,0,0-88-42H175.15A113.07,113.07,0,0,0,62.08,113.07V204.8a122,122,0,0,0,41,91.11V339l-51.6,16.24-1.92.71A80.67,80.67,0,0,0,.64,430.08v42.23A20.49,20.49,0,0,0,21.2,492.79l327.26-1.27.33,0H471.67a20.48,20.48,0,0,0,20.48-20.48V447C492.15,415.26,476,386.81,448.54,372.51ZM41.6,430.08A39.73,39.73,0,0,1,64.82,394l64.85-20.41A20.47,20.47,0,0,0,144,354V286.27a20.48,20.48,0,0,0-8.13-16.34C115.29,254.38,103,230.63,103,204.8V113.07A72.12,72.12,0,0,1,175.15,41h19.62A72,72,0,0,1,254.59,72.8,20.92,20.92,0,0,0,256,75.5a72.06,72.06,0,0,1,10.68,32.26c0,.21,0,.41,0,.62,0,.58.07,1.16.09,1.75,0,.78.06,1.56.06,2.34,0,.21,0,.41,0,.62v91.73c0,25.82-12.25,49.56-32.82,65.11a20.46,20.46,0,0,0-8.14,16.34V354a20.5,20.5,0,0,0,11.55,18.43,20.81,20.81,0,0,0,3.14,1.21l64.64,19.1a39.79,39.79,0,0,1,23.07,36.05v21.83L41.6,451.75Zm409.59,20.5H369.28V428.81a80.7,80.7,0,0,0-48.9-74.14l-2.26-.82-51.24-15.14v-42.8a122,122,0,0,0,41-91.11V113.07c0-1.31,0-2.61-.08-3.9v-.09a112.74,112.74,0,0,0-4.2-26.92c11.55.93,23.44,4.75,36.28,11,10,5.9,18.61,15.6,25,27.81a104.46,104.46,0,0,1,9.74,28.7A84.05,84.05,0,0,1,376.14,162c.79,40.65,14.09,76,37.4,112,4.12,6.36,8.32,12.4,13.61,19.71-.74-1,5,6.88,8.65,11.9a80.83,80.83,0,0,1-22.49,1.86c-.67,0-1.18-.07-1.15-.07l-2.49-.08-33.4.92c-20.12,0-33.78,21.72-24.58,40.35,4.62,9.29,10.92,16.91,19.25,21.52l55.87,37.23,2.2,1.27c13.85,6.93,22.18,21.34,22.18,38.46Z" transform="translate(-0.64)"/></svg>