<svg id="Capa_1" data-name="Capa 1" xmlns="http://www.w3.org/2000/svg" viewBox="0 0 512 511.01"><defs><style>.cls-1{fill:#fff;}</style></defs><title>categories-mobility</title><path class="cls-1" d="M501.9,10.59C489.74-1.57,468.72-2.77,441.1,7.13c-19,6.81-38.92,18.22-48.45,27.76L316.1,111.44l-252-39.58L0,136,209.5,218,142.24,285.3l-95.48,5.59L1,336.67l103.61,50-29,29,21.24,21.24,29-29L175.84,511.5l45.77-45.77,5.59-95.47,68.39-68.39,82.05,209.46,64.11-64.12L402.18,195.28l75.43-75.43c9.53-9.54,20.94-29.46,27.75-48.46C515.26,43.78,514.07,22.75,501.9,10.59ZM53.71,124.75,74.55,103.9l215.27,33.82-57.14,57.13Zm356,312-20.84,20.84L318.77,278.69l57.13-57.13ZM477.09,61.26c-5.74,16-15.23,31.86-20.72,37.35L197.88,357.1l-5.59,95.47-7.8,7.8-36.2-74.92,26.11-26.11L153.16,338.1l-26.07,26.07L52.14,328l7.79-7.79,95.47-5.59L413.89,56.13c5.49-5.5,21.33-15,37.35-20.72,18.17-6.52,27.82-5.19,29.42-3.58S483.6,43.08,477.09,61.26Z" transform="translate(0 -0.5)"/></svg>