<svg id="Capa_1" data-name="Capa 1" xmlns="http://www.w3.org/2000/svg" viewBox="0 0 260.57 297.66"><defs><style>.cls-1{fill:#fff;}</style></defs><title>categories-safety</title><path class="cls-1" d="M276.78,119.91a8,8,0,0,0,2.25-6.24h.09C270.39,49.56,215.29,0,148.83,0,82.57,0,27.61,49.26,18.63,113.08c0,.1,0,.2,0,.3a2.54,2.54,0,0,0,0,.29h0a8,8,0,0,0,2.26,6.11l71.59,73.06a23.9,23.9,0,0,1,7.41-1.18h8.36c0-1,0-1.2,0-1.68,0-1.26.06-2.51.18-3.74l-73.77-75.3A38.08,38.08,0,0,1,100,106.31l17.59,57.57a41.15,41.15,0,0,1,13.48-10.64L117,107a38.08,38.08,0,0,1,63.32-.58l-14,46.69a41.19,41.19,0,0,1,13.53,10.6l1.22-4.09,16-53.51a38.08,38.08,0,0,1,65.59,5.3l-73.35,75c.11,1.22.17,2.45.17,3.69,0,.42,0,.5,0,1.5h7.35a23.81,23.81,0,0,1,8.34,1.5Z" transform="translate(-18.55)"/><path class="cls-1" d="M204.83,215.67a8,8,0,0,0-8-8H166.7a27,27,0,0,0,6.8-17.5c0-13.63-11-25-24.67-25a24.66,24.66,0,0,0-24.66,24.66,25.25,25.25,0,0,0,6.3,16.73c0,.05-.06.15-.09.15h0c-.07,0-.14,0-.2,1H99.83a8,8,0,0,0,0,16H126.5v66a8,8,0,0,0,16,0V264.15a24.56,24.56,0,0,0,4.5.51,17.49,17.49,0,0,0,4.5-.51v25.51a8,8,0,0,0,16,0v-66h29.33A8,8,0,0,0,204.83,215.67Z" transform="translate(-18.55)"/></svg>