<svg id="Capa_1" data-name="Capa 1" xmlns="http://www.w3.org/2000/svg" viewBox="0 0 512 512"><defs><style>.cls-1{fill:#fff;}</style></defs><title>categories-youth</title><path class="cls-1" d="M437,75A256,256,0,0,0,75,437,256,256,0,0,0,437,75ZM256,482C131.38,482,30,380.62,30,256A225.5,225.5,0,0,1,104.58,88.37L111.46,108a86.79,86.79,0,0,0,51.13,52.55,57.18,57.18,0,0,1,36.2,60.49c-30.74-16.83-71.17-4.34-94.24,28.12a44.93,44.93,0,0,0,2.38,89.8h20.64a74.92,74.92,0,0,0,17,43.44A81,81,0,0,0,207.24,412a261.43,261.43,0,0,0,117.94-28.26,138.66,138.66,0,0,0,75.82-123,84.87,84.87,0,0,0,19.94-58C419.27,158,382.87,121,338,121c-52.79,0-87,42-87,85a84.83,84.83,0,0,0,2.42,20.1,88,88,0,0,0-29,16.35,87.2,87.2,0,0,0-51.15-109.89,56.85,56.85,0,0,1-33.49-34.42L129.52,68.8A224.7,224.7,0,0,1,256,30c124.62,0,226,101.38,226,226S380.62,482,256,482ZM213.71,322.42a45.69,45.69,0,0,0,6.86,6.44c10.69,8.16,25.11,12.25,43.12,12.25q21.33,0,49.27-7.64L305,304.53c-44.44,12.17-61.15,4.39-66.28.48-2.88-2.2-6.71-6.29-6.71-16.38,0-19.31,20.34-31.15,33.66-34.89A85,85,0,0,0,336,291V261a55.06,55.06,0,0,1-55-55c0-28.25,21.75-55,56.33-55,29,0,52.55,23.9,53.63,52.86a54.86,54.86,0,0,1-13.19,37.9A28.24,28.24,0,0,0,371,260.15,108.16,108.16,0,0,1,311.59,357a231.32,231.32,0,0,1-104.35,25,51.07,51.07,0,0,1-39.54-18.64,45,45,0,0,1-3.73-52l8.85-14.56-25.64-15.58-8.85,14.56A75.06,75.06,0,0,0,132,309h-25a14.93,14.93,0,1,1,0-29.86h14.49l4.33-7.5c13.88-24,40.45-34.77,59.23-23.93,8.64,5,14.47,14,16.42,25.33,2.13,12.38-.54,25.84-7.52,37.93Z"/></svg>