<svg id="Capa_1" data-name="Capa 1" xmlns="http://www.w3.org/2000/svg" viewBox="0 0 395.73 512"><defs><style>.cls-1{fill:#fff;}</style></defs><title>categories-sustainable_markets</title><path class="cls-1" d="M452.62,280.45l-1.7-10.76L440.16,268c-2.87-.46-70.92-10.63-117.65,36.11-38,38-38.37,90-36.94,109.74L271,428.39V259.47c64.74-7.46,115.17-62.6,115.17-129.3a130.17,130.17,0,0,0-260.34,0c0,66.7,50.43,121.84,115.17,129.3V428.39l-14.57-14.56c1.43-19.72,1-71.77-36.94-109.74C142.76,257.35,74.72,267.53,71.84,268l-10.75,1.71-1.71,10.76c-.46,2.87-10.63,70.91,36.1,117.64,32.08,32.08,74.2,37.35,98.39,37.35,4.45,0,8.28-.18,11.35-.4L241,470.82V512h30V470.82L306.78,435c3.06.22,6.9.4,11.35.4,24.19,0,66.31-5.27,98.39-37.35C463.25,351.36,453.08,283.32,452.62,280.45Zm-299.53,60L131.88,361.7,174.22,404c-18.06-2.63-40-9.68-57.53-27.16-25.79-25.79-28.82-61.83-28.47-80.11,18.26-.4,54.1,2.58,80.06,28.53,17.34,17.34,24.38,39.31,27,57.41ZM256,230.34A100.17,100.17,0,1,1,356.17,130.17,100.29,100.29,0,0,1,256,230.34ZM395.3,376.88C378,394.22,356,401.27,337.89,403.93l42.23-42.23-21.21-21.22-42.34,42.34c2.62-18.06,9.67-40,27.16-57.52,25.79-25.79,61.82-28.83,80.11-28.48C424.24,315.06,421.26,350.92,395.3,376.88Z" transform="translate(-58.14)"/><path class="cls-1" d="M256,115.17a10.68,10.68,0,1,1,10.68-10.68h30A40.74,40.74,0,0,0,271,66.69V48.83H241V66.69a40.67,40.67,0,0,0,15,78.48,10.68,10.68,0,1,1-10.68,10.68h-30A40.75,40.75,0,0,0,241,193.65v17.86h30V193.65a40.67,40.67,0,0,0-15-78.48Z" transform="translate(-58.14)"/></svg>