<svg id="Capa_1" data-name="Capa 1" xmlns="http://www.w3.org/2000/svg" viewBox="0 0 454.88 512"><defs><style>.cls-1{fill:#fff;}</style></defs><title>categories-energy</title><path class="cls-1" d="M451.58,120.91h-30v28.14H393.32V120.91h-30v28.14H331.46v30h17.32v30.87a58.77,58.77,0,0,0,43.67,56.71V381.76a33.5,33.5,0,0,1-67,0V338.22a63.51,63.51,0,1,0-127,0V448.5a33.5,33.5,0,0,1-67,0V299.25c18.73-15.67,72.87-67.57,72.87-144,0-90.42-75.83-146.53-79.06-148.87L116.43,0l-8.81,6.4c-3.23,2.34-79.06,58.45-79.06,148.87,0,76.41,54.13,128.31,72.87,144V448.49a63.51,63.51,0,1,0,127,0V338.22a33.5,33.5,0,0,1,67,0v43.54a63.51,63.51,0,0,0,127,0V266.64a58.78,58.78,0,0,0,43.67-56.71V179.06h17.32v-30H451.58V120.91ZM101.43,155.27v102c-19.15-21.48-42.87-57.15-42.87-102,0-58.09,39.75-100.75,57.87-117.18,18.14,16.45,57.87,59.1,57.87,117.18,0,44.88-23.71,80.55-42.87,102v-102Zm334.68,54.66a28.66,28.66,0,0,1-57.32,0V179.06h57.32v30.87Z" transform="translate(-28.56)"/></svg>