<svg id="Capa_1" data-name="Capa 1" xmlns="http://www.w3.org/2000/svg" viewBox="0 0 595.3 546.96"><defs><style>.cls-1{fill:#fff;}.cls-2{fill:none;stroke:#fff;stroke-linecap:round;stroke-linejoin:round;stroke-width:43px;}</style></defs><title>categories-peace</title><path class="cls-1" d="M594.9,182.7c-.2-2.1-.3-3.7-.5-4.8C586,83.6,516.8,9,427,9c-52,0-99.6,24.6-130.7,64.5C266,33.3,220.2,9,168.5,9,79,9,10,83.1,1.1,178.4c-.2,1.1-.3,2.5-.5,4.1-1.5,15.4-.3,35.8,5.6,60.7C18.7,296,47.8,344.1,89,381.4L280.6,549.8a24.92,24.92,0,0,0,32.7.1l193-168.2c45.5-47.3,72.5-89.9,83.2-139C594.8,218.2,596.1,197.9,594.9,182.7ZM541,232.2c-8.4,38.6-30.9,73.9-69,113.7L297,498.3,122,344.5C88.4,314,64.6,274.7,54.5,231.8c-4.6-19.5-5.5-34.4-4.4-45.5l.3-2.5C56.8,112,106.3,58.5,168.5,58.5c46.3,0,85.7,28.2,104.8,73.6,8.5,20.2,37.2,20.2,45.7,0,18.8-44.4,60.9-73.6,108.1-73.6,62.2,0,111.7,53.5,118.1,125.3.2,1.4.2,1.8.3,2.7C546.2,197,545.3,212.4,541,232.2Z" transform="translate(-0.01 -9)"/><g id="Symbols"><g id="Health"><g id="Group-5"><g id="Group"><polyline id="Path" class="cls-2" points="55.39 242.9 230.09 242.9 265.59 322.6 334.09 175 368.29 248.8 542.49 248.8"/></g></g></g></g></svg>