<svg id="Capa_1" data-name="Capa 1" xmlns="http://www.w3.org/2000/svg" viewBox="0 0 512 331.76"><defs><style>.cls-1{fill:#fff;}</style></defs><title>categories-education</title><path class="cls-1" d="M499.92,178.42,262.34,91.25a18.31,18.31,0,0,0-12.68,0L12.08,178.42a18.41,18.41,0,0,0-.35,34.45l237.58,92.7a18.53,18.53,0,0,0,13.38,0l237.59-92.7a18.42,18.42,0,0,0-.36-34.45ZM256,268.64,70.44,196.24,256,128.15l185.56,68.09Z" transform="translate(0 -90.12)"/><path class="cls-1" d="M397.81,236.23V361.39a438.63,438.63,0,0,1-284.24,0V236.22H76.74V374.35a18.4,18.4,0,0,0,12,17.24,475.59,475.59,0,0,0,167,30.29,475.63,475.63,0,0,0,167-30.28,18.41,18.41,0,0,0,11.94-17.25V236.23Z" transform="translate(0 -90.12)"/><path class="cls-1" d="M493.58,179.14a18.41,18.41,0,0,0-18.41,18.42V358.4a18.42,18.42,0,1,0,36.83,0V197.56A18.41,18.41,0,0,0,493.58,179.14Z" transform="translate(0 -90.12)"/></svg>