<svg id="Capa_1" data-name="Capa 1" xmlns="http://www.w3.org/2000/svg" viewBox="0 0 450 512"><defs><style>.cls-1{fill:#fff;}</style></defs><title>categories-elderly_aging</title><path class="cls-1" d="M295,367.48a45,45,0,0,1-77.94,0l-26,15a75,75,0,0,0,129.86,0Z" transform="translate(-31)"/><path class="cls-1" d="M481,195c0-74.44-60.56-135-135-135H331A60.07,60.07,0,0,0,271,0H241a60.07,60.07,0,0,0-60,60H166C91.56,60,31,120.56,31,195a134.39,134.39,0,0,0,16.17,64.08A60,60,0,0,0,91,360h.68C99.13,443.85,169.41,512,256,512s156.87-68.12,164.33-152H421a60,60,0,0,0,43.83-100.92A134.39,134.39,0,0,0,481,195ZM241,30h30a30,30,0,0,1,30,30H211A30,30,0,0,1,241,30ZM91,330a30,30,0,0,1,0-60Zm300,15c0,75.54-60.56,137-135,137S121,420.54,121,345V279.27l31.09,15.55A45,45,0,0,0,238.42,300h35.16a45,45,0,0,0,86.33-5.18L391,279.27ZM316,240a45.07,45.07,0,0,0-42.42,30H238.42a45,45,0,0,0-81.93-6.52L121.56,246A75.1,75.1,0,0,1,196,180H316a75.1,75.1,0,0,1,74.44,66l-34.93,17.47A45,45,0,0,0,316,240Zm15,45a15,15,0,1,1-15-15A15,15,0,0,1,331,285Zm-120,0a15,15,0,1,1-15-15A15,15,0,0,1,211,285Zm210,45V270a30,30,0,0,1,0,60Zm18.45-87.09A59.93,59.93,0,0,0,421,240h-1.08A105.15,105.15,0,0,0,316,150H196A105.15,105.15,0,0,0,92.08,240H91a59.93,59.93,0,0,0-18.45,2.91A105,105,0,0,1,166,90H346a105,105,0,0,1,93.45,152.91Z" transform="translate(-31)"/></svg>