<?xml version="1.0" encoding="utf-8"?>
<!-- Generator: Adobe Illustrator 22.1.0, SVG Export Plug-In . SVG Version: 6.00 Build 0)  -->
<svg version="1.1" id="Capa_1" xmlns="http://www.w3.org/2000/svg" xmlns:xlink="http://www.w3.org/1999/xlink" x="0px" y="0px"
	 viewBox="0 0 512.2 512.2" style="enable-background:new 0 0 512.2 512.2;" xml:space="preserve">
<style type="text/css">
	.st0{fill:#FFFFFF;}
</style>
<g transform="translate(1 1)">
	<g>
		<path class="st0" d="M510.8,169.9c-0.1-1.8-0.3-3.2-0.4-4.1c-7.2-81.1-66.7-145.4-144-145.4c-43.8,0-84.3,25.2-111.4,63.1
			c-27-38-67.3-63.1-111.1-63.1c-77,0-136.4,63.8-144,145.8c-0.1,1-0.3,2.1-0.4,3.5C-1.8,183-0.7,200.6,4.3,222
			c10.7,45.5,35.8,86.9,71.2,119l165.2,143.4c1.5,1.3,3.2,2.5,5,3.3c0.1,0,0.1,0.1,0.2,0.1c0.5,0.2,1,0.4,1.5,0.6
			c0.1,0,0.3,0.1,0.4,0.1c0.4,0.2,0.9,0.3,1.3,0.4c0.1,0,0.1,0,0.2,0c0.1,0,0.2,0.1,0.4,0.1c1.1,0.3,2.3,0.5,3.4,0.6
			c0,0,0.1,0,0.1,0c0.6,0.1,1.2,0.1,1.8,0.1c0,0,0,0,0,0c1.9,0,3.7-0.2,5.5-0.7c0,0,0,0,0.1,0c0.5-0.1,1.1-0.3,1.6-0.5
			c0.1,0,0.2-0.1,0.3-0.1c0.5-0.2,1-0.4,1.4-0.6c0.1-0.1,0.2-0.1,0.4-0.2c0.5-0.2,0.9-0.5,1.4-0.7c0.1-0.1,0.2-0.1,0.3-0.2
			c0.5-0.3,0.9-0.6,1.4-0.9c0.1,0,0.1-0.1,0.2-0.2c0.5-0.3,0.9-0.7,1.4-1.1c0,0,0,0,0,0l165.5-143.3c39.2-40.8,62.4-77.4,71.7-119.6
			C510.8,200.4,511.8,183,510.8,169.9z M45.9,212.1c-4-16.7-4.7-29.6-3.8-39.2l0.3-2.1C47.8,109.1,90.5,63.1,144,63.1
			c32.4,0,64.2,22.8,83.6,56.6L179.2,152c-0.2,0.1-0.3,0.2-0.5,0.3c-0.4,0.3-0.8,0.5-1.1,0.8c-0.2,0.2-0.4,0.4-0.6,0.5
			c-0.3,0.3-0.6,0.6-0.9,0.9c-0.2,0.2-0.4,0.5-0.7,0.7c-0.2,0.3-0.5,0.5-0.7,0.8c-0.2,0.3-0.5,0.6-0.7,0.9c-0.2,0.3-0.4,0.5-0.6,0.8
			c-0.2,0.4-0.5,0.7-0.7,1.1c-0.1,0.2-0.3,0.5-0.4,0.7c-0.2,0.4-0.4,0.8-0.6,1.3c-0.1,0.2-0.2,0.3-0.3,0.5c0,0,0,0.1,0,0.1
			c-0.2,0.4-0.3,0.9-0.5,1.3c-0.1,0.2-0.2,0.5-0.3,0.7c-0.1,0.3-0.2,0.6-0.2,1c-0.1,0.4-0.2,0.7-0.3,1.1c0,0,0,0.1,0,0.1
			c-0.4,1.9-0.5,3.8-0.3,5.7c0,0.1,0,0.2,0,0.3c0,0.1,0,0.2,0,0.3c0.2,1.9,0.6,3.8,1.4,5.6c0,0,0,0.1,0,0.1c0.1,0.3,0.3,0.7,0.5,1
			c0.1,0.3,0.3,0.6,0.4,0.9c0.1,0.2,0.3,0.5,0.4,0.7c0.2,0.4,0.4,0.8,0.7,1.2c0,0,0,0.1,0.1,0.1c0.1,0.2,0.2,0.3,0.4,0.5
			c0.3,0.4,0.5,0.8,0.8,1.1c0.2,0.2,0.4,0.4,0.5,0.6c0.3,0.3,0.6,0.6,0.9,0.9c0.2,0.2,0.5,0.4,0.7,0.7c0.3,0.2,0.5,0.5,0.8,0.7
			c0.3,0.2,0.6,0.5,0.9,0.7c0.3,0.2,0.5,0.4,0.8,0.6c0.3,0.2,0.7,0.5,1.1,0.7c0.2,0.1,0.5,0.3,0.7,0.4c0.4,0.2,0.8,0.4,1.3,0.6
			c0.2,0.1,0.3,0.2,0.5,0.3l107.1,45.9l-86.9,43.4c0,0-0.1,0-0.1,0.1c-0.6,0.3-1.1,0.6-1.7,0.9c-0.1,0.1-0.2,0.1-0.3,0.2
			c-0.5,0.3-1,0.7-1.5,1c-0.1,0.1-0.2,0.1-0.3,0.2c-0.5,0.4-0.9,0.7-1.3,1.1c-0.1,0.1-0.2,0.2-0.2,0.2c-0.4,0.4-0.8,0.9-1.2,1.3
			c-0.1,0.1-0.1,0.1-0.2,0.2c-0.4,0.5-0.8,1-1.1,1.5c0,0-0.1,0.1-0.1,0.1c-0.4,0.5-0.7,1.1-1,1.6c0,0,0,0.1-0.1,0.1
			c-0.3,0.6-0.6,1.1-0.9,1.7c0,0,0,0.1-0.1,0.1c-0.2,0.6-0.5,1.1-0.7,1.7c0,0.1-0.1,0.2-0.1,0.2c-0.2,0.5-0.3,1-0.4,1.5
			c0,0.1,0,0.2-0.1,0.3c0,0.1,0,0.2-0.1,0.3c-0.1,0.6-0.2,1.2-0.3,1.8c0,0.1,0,0.2,0,0.2c-0.1,0.6-0.1,1.2-0.2,1.8
			c0,0.1,0,0.1,0,0.2c0,0.6,0,1.3,0,1.9c0,0,0,0.1,0,0.1c0,0.6,0.1,1.3,0.2,1.9c0,0.1,0,0.1,0,0.2c0.1,0.6,0.2,1.3,0.4,1.9
			c0,0.1,0,0.1,0,0.2c0.2,0.6,0.4,1.2,0.6,1.9c0,0.1,0,0.1,0.1,0.2c0.2,0.6,0.5,1.2,0.8,1.8c0,0,0,0.1,0,0.1c0,0,0,0.1,0.1,0.1
			c0.3,0.6,0.6,1.1,0.9,1.7c0.1,0.1,0.1,0.2,0.2,0.3c0.3,0.5,0.7,1,1,1.5c0.1,0.1,0.1,0.2,0.2,0.3c0.4,0.5,0.7,0.9,1.1,1.3
			c0.1,0.1,0.2,0.2,0.2,0.2c0.4,0.4,0.9,0.8,1.3,1.2c0.1,0.1,0.1,0.1,0.2,0.2c0.5,0.4,1,0.8,1.5,1.1c0,0,0.1,0.1,0.1,0.1
			c0.5,0.4,1.1,0.7,1.6,1c0,0,0.1,0,0.1,0.1c0.6,0.3,1.1,0.6,1.7,0.9c0,0,0.1,0,0.1,0.1c0.6,0.2,1.1,0.5,1.7,0.7
			c0.1,0,0.2,0.1,0.2,0.1c0.5,0.2,1,0.3,1.5,0.4l63.9,16l-27.4,95.9L103.9,309C75.1,282.9,54.6,249,45.9,212.1z M464.5,212.5
			c-7.3,33.2-26.6,63.6-59.4,97.8l-109.9,95.1l23-80.5c0-0.1,0.1-0.2,0.1-0.3c0-0.1,0.1-0.2,0.1-0.3c0-0.1,0-0.1,0-0.2
			c0-0.2,0.1-0.4,0.1-0.6c0-0.2,0.1-0.3,0.1-0.5c0-0.2,0.1-0.4,0.1-0.6c0-0.2,0-0.3,0.1-0.5c0-0.2,0.1-0.4,0.1-0.6
			c0-0.1,0-0.3,0-0.4c0-0.2,0-0.4,0-0.6c0-0.2,0-0.3,0-0.5c0-0.2,0-0.4,0-0.6c0-0.2,0-0.3,0-0.5c0-0.2,0-0.4,0-0.5
			c0-0.2,0-0.3,0-0.5c0-0.2,0-0.3,0-0.5c0-0.2,0-0.4-0.1-0.5c0-0.2,0-0.3-0.1-0.5c0-0.2,0-0.4-0.1-0.5c0-0.2-0.1-0.3-0.1-0.5
			c0-0.2-0.1-0.4-0.1-0.6c0-0.1-0.1-0.3-0.1-0.4c0-0.2-0.1-0.4-0.1-0.6c0-0.1-0.1-0.3-0.1-0.4c-0.1-0.2-0.1-0.4-0.2-0.6
			c0-0.1-0.1-0.3-0.1-0.4c-0.1-0.2-0.1-0.4-0.2-0.5c-0.1-0.1-0.1-0.3-0.2-0.4c-0.1-0.2-0.1-0.4-0.2-0.5c-0.1-0.1-0.1-0.3-0.2-0.4
			c-0.1-0.2-0.2-0.3-0.2-0.5c-0.1-0.1-0.1-0.3-0.2-0.4c-0.1-0.2-0.2-0.3-0.2-0.5c-0.1-0.1-0.2-0.3-0.3-0.4c-0.1-0.1-0.2-0.3-0.3-0.4
			c-0.1-0.2-0.2-0.3-0.3-0.4c-0.1-0.1-0.2-0.3-0.3-0.4c-0.1-0.2-0.2-0.3-0.3-0.4c-0.1-0.1-0.2-0.3-0.3-0.4c-0.1-0.1-0.2-0.3-0.3-0.4
			c-0.1-0.1-0.2-0.2-0.3-0.4c-0.1-0.1-0.2-0.3-0.4-0.4c-0.1-0.1-0.2-0.2-0.3-0.3c-0.1-0.1-0.3-0.3-0.4-0.4c-0.1-0.1-0.2-0.2-0.3-0.3
			c-0.1-0.1-0.3-0.3-0.4-0.4c-0.1-0.1-0.2-0.2-0.3-0.3c-0.1-0.1-0.3-0.2-0.4-0.4c-0.1-0.1-0.2-0.2-0.4-0.3c-0.1-0.1-0.3-0.2-0.4-0.3
			c-0.1-0.1-0.3-0.2-0.4-0.3c-0.1-0.1-0.3-0.2-0.4-0.3c-0.1-0.1-0.3-0.2-0.4-0.3c-0.1-0.1-0.3-0.2-0.4-0.3c-0.2-0.1-0.3-0.2-0.5-0.3
			c-0.1-0.1-0.3-0.2-0.4-0.2c-0.2-0.1-0.3-0.2-0.5-0.3c-0.1-0.1-0.3-0.1-0.4-0.2c-0.2-0.1-0.4-0.2-0.5-0.3c-0.1-0.1-0.3-0.1-0.4-0.2
			c-0.2-0.1-0.4-0.2-0.6-0.2c-0.1-0.1-0.3-0.1-0.4-0.2c-0.2-0.1-0.4-0.1-0.6-0.2c-0.2-0.1-0.3-0.1-0.5-0.2c-0.2-0.1-0.4-0.1-0.6-0.2
			c-0.1,0-0.1,0-0.2-0.1c-0.1,0-0.2-0.1-0.3-0.1c-0.1,0-0.2-0.1-0.3-0.1l-29.4-7.3l76.4-38.2c0,0,0.1,0,0.1-0.1
			c0.4-0.2,0.8-0.5,1.3-0.7c0.2-0.1,0.4-0.2,0.6-0.3c0.4-0.3,0.8-0.6,1.2-0.9c0.2-0.1,0.3-0.2,0.5-0.4c0.4-0.3,0.8-0.7,1.1-1
			c0.1-0.1,0.3-0.2,0.4-0.4c0.2-0.2,0.4-0.5,0.7-0.7c0.3-0.3,0.5-0.5,0.8-0.8c0.1-0.1,0.2-0.3,0.3-0.4c0.3-0.4,0.7-0.8,1-1.2
			c0.1-0.2,0.2-0.3,0.3-0.5c0.3-0.4,0.5-0.8,0.8-1.3c0.1-0.2,0.2-0.4,0.3-0.6c0.2-0.4,0.4-0.9,0.6-1.3c0,0,0-0.1,0.1-0.1
			c0.1-0.2,0.2-0.5,0.3-0.7c0.2-0.4,0.3-0.8,0.4-1.2c0.1-0.3,0.2-0.7,0.3-1c0.1-0.3,0.2-0.7,0.3-1c0.1-0.4,0.1-0.8,0.2-1.1
			c0-0.3,0.1-0.6,0.1-0.9c0-0.4,0.1-0.7,0.1-1.1c0-0.3,0-0.6,0.1-1c0-0.4,0-0.7,0-1.1c0-0.4,0-0.7,0-1.1c0-0.3-0.1-0.6-0.1-1
			c0-0.4-0.1-0.7-0.2-1.1c-0.1-0.3-0.1-0.6-0.2-0.9c-0.1-0.4-0.2-0.7-0.3-1.1c-0.1-0.3-0.2-0.6-0.3-1c-0.1-0.3-0.2-0.7-0.3-1
			c-0.2-0.4-0.3-0.8-0.5-1.1c-0.1-0.2-0.2-0.4-0.3-0.7c0,0,0-0.1-0.1-0.1c-0.2-0.4-0.5-0.8-0.7-1.3c-0.1-0.2-0.2-0.4-0.3-0.6
			c-0.3-0.4-0.6-0.8-0.9-1.2c-0.1-0.2-0.2-0.3-0.4-0.5c-0.3-0.4-0.7-0.8-1-1.1c-0.1-0.1-0.2-0.3-0.4-0.4c-0.2-0.2-0.5-0.4-0.7-0.7
			c-0.3-0.3-0.5-0.5-0.8-0.8c-0.1-0.1-0.3-0.2-0.4-0.3c-0.4-0.3-0.8-0.7-1.2-0.9c-0.2-0.1-0.3-0.2-0.5-0.3c-0.4-0.3-0.8-0.5-1.3-0.8
			c-0.2-0.1-0.4-0.2-0.6-0.3c-0.4-0.2-0.9-0.4-1.3-0.6c0,0-0.1,0-0.1-0.1l-113.1-48.5l30.1-20.1c3.3-1.9,6.2-4.7,8.1-8.5
			c0,0,0-0.1,0-0.1c0.3-0.5,0.5-1.1,0.8-1.7c17.8-42.2,54.5-72.3,91.7-72.3c53.5,0,96.1,46,101.6,107.8c0.1,1.2,0.2,1.6,0.2,2.3
			C469,182.2,468.2,195.5,464.5,212.5z"/>
	</g>
</g>
</svg>
