<?xml version="1.0" encoding="utf-8"?>
<!-- Generator: Adobe Illustrator 22.1.0, SVG Export Plug-In . SVG Version: 6.00 Build 0)  -->
<svg version="1.1" id="Capa_1" xmlns="http://www.w3.org/2000/svg" xmlns:xlink="http://www.w3.org/1999/xlink" x="0px" y="0px"
	 viewBox="0 0 595.3 566.6" style="enable-background:new 0 0 595.3 566.6;" xml:space="preserve">
<style type="text/css">
	.st0{fill:#FFFFFF;}
	.st1{fill:none;stroke:#FFFFFF;stroke-width:43;stroke-linecap:round;stroke-linejoin:round;}
</style>
<g>
	<g>
		<path class="st0" d="M594.9,182.7c-0.2-2.1-0.3-3.7-0.5-4.8C586,83.6,516.8,9,427,9c-52,0-99.6,24.6-130.7,64.5
			C266,33.3,220.2,9,168.5,9C79,9,10,83.1,1.1,178.4c-0.2,1.1-0.3,2.5-0.5,4.1c-1.5,15.4-0.3,35.8,5.6,60.7
			C18.7,296,47.8,344.1,89,381.4l191.6,168.4c9.3,8.2,23.3,8.2,32.7,0.1l193-168.2c45.5-47.3,72.5-89.9,83.2-139
			C594.8,218.2,596.1,197.9,594.9,182.7z M541,232.2c-8.4,38.6-30.9,73.9-69,113.7L297,498.3L122,344.5
			C88.4,314,64.6,274.7,54.5,231.8c-4.6-19.5-5.5-34.4-4.4-45.5l0.3-2.5C56.8,112,106.3,58.5,168.5,58.5
			c46.3,0,85.7,28.2,104.8,73.6c8.5,20.2,37.2,20.2,45.7,0c18.8-44.4,60.9-73.6,108.1-73.6c62.2,0,111.7,53.5,118.1,125.3
			c0.2,1.4,0.2,1.8,0.3,2.7C546.2,197,545.3,212.4,541,232.2z"/>
	</g>
</g>
<g id="Symbols">
	<g id="Health" transform="translate(-1.000000, -6.000000)">
		<g id="Group-5">
			<g id="Group">
				<polyline id="Path" class="st1" points="56.4,257.9 231.1,257.9 266.6,337.6 335.1,190 369.3,263.8 543.5,263.8 				"/>
			</g>
		</g>
	</g>
</g>
</svg>
