<svg id="Layer_1" data-name="Layer 1" xmlns="http://www.w3.org/2000/svg" viewBox="0 0 381.1 512"><defs><style>.cls-1{fill:#fff;}</style></defs><title>categories-water</title><path class="cls-1" d="M413.6,225.15,256,0,98.4,225.15A181.26,181.26,0,0,0,72.57,379.72C87.58,432.11,140.1,512,256,512s168.42-79.89,183.43-132.28A181.26,181.26,0,0,0,413.6,225.15ZM398.55,368C387.09,408,342.83,469.47,256,469.47S124.92,408,113.45,368a138.92,138.92,0,0,1,19.79-118.46L256,74.16,378.76,249.54A138.92,138.92,0,0,1,398.55,368Z" transform="translate(-65.45)"/></svg>