<?xml version="1.0" encoding="utf-8"?>
<!-- Generator: Adobe Illustrator 22.1.0, SVG Export Plug-In . SVG Version: 6.00 Build 0)  -->
<svg version="1.1" id="Capa_1" xmlns="http://www.w3.org/2000/svg" xmlns:xlink="http://www.w3.org/1999/xlink" x="0px" y="0px"
	 viewBox="0 0 100 100" style="enable-background:new 0 0 100 100;" xml:space="preserve">
<style type="text/css">
	.st0{fill:#FFFFFF;}
</style>
<g>
	<path class="st0" d="M79.5,28C69.1,28,57.7,33.8,50,42.6C42.3,33.8,30.9,28,20.5,28C10.6,28,0,33.8,0,50s10.6,22,20.5,22l0,0
		c10.4,0,21.8-5.8,29.5-14.6C57.7,66.2,69.1,72,79.5,72c9.9,0,20.5-5.8,20.5-22S89.4,28,79.5,28z M20.5,63.2
		c-7.6,0-11.4-4.4-11.4-13.2c0-8.8,3.8-13.2,11.4-13.2c8.4,0,18.1,5.4,24,13.2C38.6,57.8,28.9,63.2,20.5,63.2z M79.5,63.2
		c-8.4,0-18.1-5.4-24-13.2c6-7.8,15.7-13.2,24-13.2c7.6,0,11.4,4.4,11.4,13.2C90.9,58.8,87.1,63.2,79.5,63.2z"/>
</g>
</svg>
