<svg id="Capa_1" data-name="Capa 1" xmlns="http://www.w3.org/2000/svg" viewBox="0 0 443.85 512"><defs><style>.cls-1{fill:#fff;}</style></defs><title>categories-nature</title><path class="cls-1" d="M394.16,119.47a139.62,139.62,0,0,0-276.32,0,140,140,0,0,0-83.76,128c0,77,62.62,139.61,139.6,139.61A139.42,139.42,0,0,0,241,369.74V512h30V369.74a139.42,139.42,0,0,0,67.32,17.31c77,0,139.6-62.63,139.6-139.61A139.93,139.93,0,0,0,394.16,119.47ZM338.32,357.05A109.49,109.49,0,0,1,271,333.93V242.18l67.28-35.38-14-26.55-53.32,28V149.23H241V274.77l-53.31-28-14,26.55L241,308.67v25.26A109.61,109.61,0,1,1,136.8,144.2l9.18-3.28.73-9.71a109.61,109.61,0,0,1,218.58,0l.74,9.71,9.17,3.28a109.62,109.62,0,0,1-36.88,212.85Z" transform="translate(-34.08)"/></svg>