<svg id="Layer_1" data-name="Layer 1" xmlns="http://www.w3.org/2000/svg" viewBox="0 0 428.97 512"><defs><style>.cls-1{fill:#fff;}</style></defs><title>categories-food</title><path class="cls-1" d="M339,110.7a131.56,131.56,0,0,0-54.44,11.8A90,90,0,0,1,366.7,69.19V27.68a131.1,131.1,0,0,0-95.86,41.6A104,104,0,0,0,173,0H124.54V48.43a103.22,103.22,0,0,0,22.8,64.79c-60.26,12-105.83,65.23-105.83,128.94,0,66.46,17.32,133.51,47.51,184C122.16,481.5,166.72,512,214.49,512A89.25,89.25,0,0,0,256,501.89,89.25,89.25,0,0,0,297.51,512c47.77,0,92.33-30.5,125.47-85.88,30.19-50.45,47.51-117.5,47.51-184C470.49,169.68,411.51,110.7,339,110.7Zm-173-69.19H173a62.34,62.34,0,0,1,62.27,62.27v6.92h-6.92a62.34,62.34,0,0,1-62.27-62.27ZM387.36,404.8c-25.35,42.36-57.25,65.69-89.85,65.69a48,48,0,0,1-29.05-9.67L256,451.47l-12.46,9.35a48,48,0,0,1-29,9.67c-32.6,0-64.51-23.33-89.85-65.68C98.19,360.61,83,301.33,83,242.16a90,90,0,0,1,134.72-78,76.82,76.82,0,0,0,76.5,0,90,90,0,0,1,134.72,78C429,301.33,413.81,360.61,387.36,404.8Z" transform="translate(-41.51)"/></svg>