<svg id="Capa_1" data-name="Capa 1" xmlns="http://www.w3.org/2000/svg" viewBox="0 0 512 512"><defs><style>.cls-1{fill:#fff;}</style></defs><title>categories-digital_economy</title><path class="cls-1" d="M362.67,0H149.32a42.66,42.66,0,0,0-42.65,42.67V469.34A42.66,42.66,0,0,0,149.32,512H362.67a42.68,42.68,0,0,0,42.67-42.66V42.67A42.68,42.68,0,0,0,362.67,0ZM149.34,106.67H362.67V341.33H149.34Zm213.33-64V64H149.34V42.67ZM149.34,469.33V384H362.67v85.33Z" transform="translate(0)"/><path class="cls-1" d="M256,405.33a21.34,21.34,0,1,0,21.33,21.34A21.34,21.34,0,0,0,256,405.33Z" transform="translate(0)"/><path class="cls-1" d="M480.71,40.85A21.33,21.33,0,0,0,450.54,71a64.4,64.4,0,0,1,0,90.94,21.33,21.33,0,1,0,30.17,30.17A107.07,107.07,0,0,0,480.71,40.85Z" transform="translate(0)"/><path class="cls-1" d="M61.46,40.85a21.34,21.34,0,0,0-30.17,0,107.07,107.07,0,0,0,0,151.28A21.33,21.33,0,1,0,61.46,162a64.4,64.4,0,0,1,0-90.94A21.34,21.34,0,0,0,61.46,40.85Z" transform="translate(0)"/></svg>