<?xml version="1.0" encoding="utf-8"?>
<!-- Generator: Adobe Illustrator 22.1.0, SVG Export Plug-In . SVG Version: 6.00 Build 0)  -->
<svg version="1.1" id="Layer_1" xmlns="http://www.w3.org/2000/svg" xmlns:xlink="http://www.w3.org/1999/xlink" x="0px" y="0px"
	 viewBox="0 0 512 512" style="enable-background:new 0 0 512 512;" xml:space="preserve">
<style type="text/css">
	.st0{fill:#FFFFFF;}
</style>
<g>
	<g>
		<path class="st0" d="M256,22.3L0,107.6v86.3h56.9v147.9H34.1v45.5H0v102.4h512V387.3h-34.1v-45.5h-22.8V193.9H512v-86.3L256,22.3z
			 M477.9,421.4v34.1H34.1v-34.1h34.1v-45.5h375.5v45.5H477.9z M91,341.8V193.9h34.1v147.9H91z M159.3,341.8V193.9h45.5v147.9H159.3
			z M238.9,341.8V193.9h34.1v147.9H238.9z M307.2,341.8V193.9h45.5v147.9H307.2z M386.8,341.8V193.9H421v147.9H386.8z M477.9,159.8
			H34.1v-27.5l221.9-74l221.9,74V159.8z"/>
	</g>
</g>
</svg>
