<?xml version="1.0" encoding="UTF-8"?>
<svg width="52px" height="52px" viewBox="0 0 52 52" version="1.1" xmlns="http://www.w3.org/2000/svg" xmlns:xlink="http://www.w3.org/1999/xlink">
    <!-- Generator: Sketch 52.2 (67145) - http://www.bohemiancoding.com/sketch -->
    <title>Slice 1</title>
    <desc>Created with Sketch.</desc>
    <g id="Page-1" stroke="none" stroke-width="1" fill="none" fill-rule="evenodd">
        <g id="check" fill="#000000">
            <path d="M26,0 C11.7,0 0,11.7 0,26 C0,40.3 11.7,52 26,52 C40.3,52 52,40.3 52,26 C52,11.7 40.3,0 26,0 Z M26,50 C12.8,50 2,39.2 2,26 C2,12.8 12.8,2 26,2 C39.2,2 50,12.8 50,26 C50,39.2 39.2,50 26,50 Z" id="Shape" fill-rule="nonzero"></path>
            <path d="M38.3,15.3 L22.9,32.6 L13.6,25.2 C13.2,24.9 12.5,24.9 12.2,25.4 C11.9,25.8 11.9,26.5 12.4,26.8 L22.4,34.8 C22.6,34.9 22.8,35 23,35 C23.3,35 23.6,34.9 23.7,34.7 L39.7,16.7 C40.1,16.3 40,15.7 39.6,15.3 C39.3,14.9 38.6,14.9 38.3,15.3 Z" id="Path"></path>
        </g>
    </g>
</svg>