<?xml version="1.0" encoding="utf-8"?>
<!-- Generator: Adobe Illustrator 22.1.0, SVG Export Plug-In . SVG Version: 6.00 Build 0)  -->
<svg version="1.1" id="Capa_1" xmlns="http://www.w3.org/2000/svg" xmlns:xlink="http://www.w3.org/1999/xlink" x="0px" y="0px"
	 viewBox="0 0 512 512" style="enable-background:new 0 0 512 512;" xml:space="preserve">
<style type="text/css">
	.st0{fill:#FFFFFF;}
</style>
<g>
	<g>
		<path class="st0" d="M463,390.7c-12.4-16.5-29.4-28.2-49.2-33.9L359.2,341c-5.3-1.5-10.8,1.5-12.4,6.8c-1.5,5.3,1.5,10.8,6.8,12.4
			l54.7,15.8c31.6,9.1,53.7,38.5,53.7,71.4V492H158.8c-5.5,0-10,4.5-10,10s4.5,10,10,10H472c5.5,0,10-4.5,10-10v-54.5
			C482,426.8,475.4,407.2,463,390.7z"/>
	</g>
</g>
<g>
	<g>
		<path class="st0" d="M126.1,494.9c-1.9-1.9-4.4-2.9-7.1-2.9s-5.2,1.1-7.1,2.9s-2.9,4.4-2.9,7.1s1.1,5.2,2.9,7.1
			c1.9,1.9,4.4,2.9,7.1,2.9s5.2-1.1,7.1-2.9s2.9-4.4,2.9-7.1S127.9,496.8,126.1,494.9z"/>
	</g>
</g>
<g>
	<g>
		<path class="st0" d="M158.5,349.8c-1.5-5.3-7.1-8.4-12.4-6.8l-47.9,13.8c-19.8,5.7-36.8,17.4-49.2,33.9
			c-12.4,16.5-19,36.1-19,56.7V502c0,5.5,4.5,10,10,10h38c5.5,0,10-4.5,10-10s-4.5-10-10-10H50v-44.5c0-32.9,22.1-62.3,53.7-71.4
			l47.9-13.8C157,360.7,160,355.1,158.5,349.8z"/>
	</g>
</g>
<g>
	<g>
		<path class="st0" d="M365.9,117.4c-10.7-18.5-26-34.2-44.3-45.2c-39.5-23.9-87.4-24.3-131.4-1.2c-19,10-34.3,25.5-44.3,45
			c-14,27.4-19.1,56.7-14.7,84.7c4.1,26.1,16.2,49.8,34.8,68.7c15.1,15.3,23.4,35.9,23.4,58c0,8.4,4.8,15.7,11.8,19.3V379
			c0,18.7,15.2,34,34,34h44.1c18.7,0,34-15.2,34-34v-33.6c5.9-3.9,9.8-10.5,9.8-18.1c0-22.1,8.3-42.7,23.4-58.1
			c23.4-23.8,36.3-55.3,36.3-88.7C382.7,158.4,376.9,136.6,365.9,117.4z M293.1,379L293.1,379c0,7.7-6.3,14-14,14h-44.1
			c-7.7,0-14-6.3-14-14v-30h72V379z M332.1,255.3C313.3,274.4,303,300,303,327.4c0,0.9-0.7,1.6-1.6,1.6H266v-73c0-5.5-4.5-10-10-10
			s-10,4.5-10,10v73h-34.9h-0.2c-0.9,0-1.6-0.7-1.6-1.6c0-27.4-10.3-53-29.1-72.1c-26.5-26.9-44.7-75.3-16.6-130.3
			c8.1-15.7,20.4-28.3,35.8-36.4c18.6-9.8,38-14.7,56.9-14.7c19.3,0,38,5.1,54.9,15.3c32.2,19.5,51.5,53.6,51.5,91.3
			C362.7,208.7,351.8,235.2,332.1,255.3z"/>
	</g>
</g>
<g>
	<g>
		<path class="st0" d="M255,164c-16.5,0-30,13.5-30,30s13.5,30,30,30s30-13.5,30-30S271.5,164,255,164z M255,204
			c-5.5,0-10-4.5-10-10s4.5-10,10-10s10,4.5,10,10S260.5,204,255,204z"/>
	</g>
</g>
<g>
	<g>
		<path class="st0" d="M255.9,0c-5.5,0-10,4.5-10,10v20.8c0,5.5,4.5,10,10,10c5.5,0,10-4.5,10-10V10C265.9,4.5,261.5,0,255.9,0z"/>
	</g>
</g>
<g>
	<g>
		<path class="st0" d="M349.3,17.6c-3.9-3.9-10.2-3.9-14.1,0l-19.5,19.5c-3.9,3.9-3.9,10.2,0,14.1c2,2,4.5,2.9,7.1,2.9
			s5.1-1,7.1-2.9l19.5-19.5C353.2,27.8,353.2,21.5,349.3,17.6z"/>
	</g>
</g>
<g>
	<g>
		<path class="st0" d="M196,37.3l-19.7-19.7c-3.9-3.9-10.2-3.9-14.1,0s-3.9,10.2,0,14.1l19.7,19.7c2,2,4.5,2.9,7.1,2.9
			s5.1-1,7.1-2.9C199.9,47.5,199.9,41.2,196,37.3z"/>
	</g>
</g>
<g>
	<g>
		<path class="st0" d="M375.1,438h-34.3c-5.5,0-10,4.5-10,10s4.5,10,10,10h34.3c5.5,0,10-4.5,10-10S380.6,438,375.1,438z"/>
	</g>
</g>
<g>
	<g>
		<path class="st0" d="M420.1,440.9c-1.9-1.9-4.4-2.9-7.1-2.9s-5.2,1.1-7.1,2.9c-1.9,1.9-2.9,4.4-2.9,7.1s1.1,5.2,2.9,7.1
			c1.9,1.9,4.4,2.9,7.1,2.9s5.2-1.1,7.1-2.9s2.9-4.4,2.9-7.1S421.9,442.8,420.1,440.9z"/>
	</g>
</g>
</svg>
