<?xml version="1.0" encoding="utf-8"?>
<!-- Generator: Adobe Illustrator 22.1.0, SVG Export Plug-In . SVG Version: 6.00 Build 0)  -->
<svg version="1.1" id="Capa_1" xmlns="http://www.w3.org/2000/svg" xmlns:xlink="http://www.w3.org/1999/xlink" x="0px" y="0px"
	 viewBox="0 0 512 512" style="enable-background:new 0 0 512 512;" xml:space="preserve">
<style type="text/css">
	.st0{fill:#FFFFFF;}
</style>
<g>
	<g>
		<path class="st0" d="M235.5,37.3H69.6C31.2,37.3,0,68.5,0,106.9v89.5C0,234.8,31.2,266,69.6,266h35.7v21.7
			c-23.1,5.7-40.2,26.6-40.2,51.4v10.7c0,12.4,4.3,23.9,11.5,32.9H57c-31.4,0-57,25.6-57,57V502c0,5.5,4.5,10,10,10h216
			c5.5,0,10-4.5,10-10v-62.4c0-31.4-25.6-57-57-57h-19.7c7.2-9,11.5-20.5,11.5-32.9V339c0-23.6-15.5-43.6-36.8-50.4l22.6-22.6h78.8
			c38.4,0,69.6-31.2,69.6-69.6v-89.5C305.1,68.5,273.9,37.3,235.5,37.3z M179,402.7c20.4,0,37,16.6,37,37V492H20v-52.4
			c0-20.4,16.6-37,37-37h51v20.3c0,5.5,4.5,10,10,10s10-4.5,10-10v-20.3H179z M150.9,339v10.7c0,18.1-14.8,32.9-32.9,32.9
			s-32.9-14.8-32.9-32.9V339c0-18.1,14.8-32.9,32.9-32.9S150.9,320.9,150.9,339z M285.1,196.4c0,27.4-22.3,49.6-49.6,49.6h-82.9
			c-2.7,0-5.2,1.1-7.1,2.9l-20.2,20.2V256c0-5.5-4.5-10-10-10H69.6C42.3,246,20,223.7,20,196.4v-89.5c0-27.4,22.3-49.6,49.6-49.6
			h165.9c27.4,0,49.6,22.3,49.6,49.6V196.4z"/>
	</g>
</g>
<g>
	<g>
		<path class="st0" d="M455,382.7h-19.7c7.2-9,11.5-20.5,11.5-32.9V339c0-29.2-23.7-52.9-52.9-52.9s-52.9,23.7-52.9,52.9v10.7
			c0,12.4,4.3,23.9,11.5,32.9H333c-31.4,0-57,25.6-57,57V502c0,5.5,4.5,10,10,10h216c5.5,0,10-4.5,10-10v-62.4
			C512,408.2,486.4,382.7,455,382.7z M361.1,339c0-18.1,14.8-32.9,32.9-32.9s32.9,14.8,32.9,32.9v10.7c0,18.1-14.8,32.9-32.9,32.9
			s-32.9-14.8-32.9-32.9V339z M492,492H296v-52.4c0-20.4,16.6-37,37-37h51V428c0,5.5,4.5,10,10,10s10-4.5,10-10v-25.4h51
			c20.4,0,37,16.6,37,37V492z"/>
	</g>
</g>
<g>
	<g>
		<path class="st0" d="M125.1,452.6c-1.9-1.9-4.4-2.9-7.1-2.9s-5.2,1.1-7.1,2.9c-1.9,1.9-2.9,4.4-2.9,7.1c0,2.6,1.1,5.2,2.9,7.1
			c1.9,1.9,4.4,2.9,7.1,2.9s5.2-1.1,7.1-2.9s2.9-4.4,2.9-7.1C128,457,126.9,454.5,125.1,452.6z"/>
	</g>
</g>
<g>
	<g>
		<path class="st0" d="M442.4,0H276.5c-5.5,0-10,4.5-10,10s4.5,10,10,10h165.9c27.4,0,49.6,22.3,49.6,49.6v89.5
			c0,27.4-22.3,49.6-49.6,49.6h-45.7c-5.5,0-10,4.5-10,10v13.1l-20.2-20.2c-1.9-1.9-4.4-2.9-7.1-2.9h-21.8c-5.5,0-10,4.5-10,10
			s4.5,10,10,10h17.6l34.3,34.3c1.9,1.9,4.5,2.9,7.1,2.9c1.3,0,2.6-0.2,3.8-0.8c3.7-1.5,6.2-5.2,6.2-9.2v-27.3h35.7
			c38.4,0,69.6-31.2,69.6-69.6V69.6C512,31.2,480.8,0,442.4,0z"/>
	</g>
</g>
<g>
	<g>
		<path class="st0" d="M222,90.8h-22.4c-5.5,0-10,4.5-10,10c0,5,3.6,9.1,8.4,9.9l-36.6,36.6l-22.2-22.2c-3.9-3.9-10.2-3.9-14.1,0
			l-57,57c-3.9,3.9-3.9,10.2,0,14.1c2,2,4.5,2.9,7.1,2.9s5.1-1,7.1-2.9l50-50l22.2,22.2c3.9,3.9,10.2,3.9,14.1,0l43.7-43.7
			c0.8,4.8,4.9,8.4,9.9,8.4c5.5,0,10-4.5,10-10v-22.4C232,95.3,227.5,90.8,222,90.8z"/>
	</g>
</g>
<g>
	<g>
		<path class="st0" d="M384,150h-48.7c-5.5,0-10,4.5-10,10s4.5,10,10,10H384c5.5,0,10-4.5,10-10S389.5,150,384,150z"/>
	</g>
</g>
<g>
	<g>
		<path class="st0" d="M433.1,152.9c-1.9-1.9-4.4-2.9-7.1-2.9s-5.2,1.1-7.1,2.9c-1.9,1.9-2.9,4.4-2.9,7.1s1.1,5.2,2.9,7.1
			c1.9,1.9,4.4,2.9,7.1,2.9s5.2-1.1,7.1-2.9c1.9-1.9,2.9-4.4,2.9-7.1S434.9,154.8,433.1,152.9z"/>
	</g>
</g>
<g>
	<g>
		<path class="st0" d="M448,54H335.3c-5.5,0-10,4.5-10,10s4.5,10,10,10H448c5.5,0,10-4.5,10-10S453.5,54,448,54z"/>
	</g>
</g>
<g>
	<g>
		<path class="st0" d="M448,102H335.3c-5.5,0-10,4.5-10,10s4.5,10,10,10H448c5.5,0,10-4.5,10-10S453.5,102,448,102z"/>
	</g>
</g>
</svg>
