<?xml version="1.0" encoding="utf-8"?>
<!-- Generator: Adobe Illustrator 22.1.0, SVG Export Plug-In . SVG Version: 6.00 Build 0)  -->
<svg version="1.1" id="Capa_1" xmlns="http://www.w3.org/2000/svg" xmlns:xlink="http://www.w3.org/1999/xlink" x="0px" y="0px"
	 viewBox="0 0 512 512" style="enable-background:new 0 0 512 512;" xml:space="preserve">
<style type="text/css">
	.st0{fill:#FFFFFF;}
</style>
<g>
	<g>
		<g>
			<path class="st0" d="M473.1,183.1c-2.3-9.4-9.5-16.9-18.8-19.6c-11.4-2.3-23.3,0-33,6.4l-0.9,0.5c-3.3,1.7-6.6,3.5-10,5.3
				c-3.2,1.8-6.5,3.6-9.7,5.2c-1.6,0.9-3.6,0.4-4.6-1.2l-41.2-79c16.4-17.3,20.9-42.7,11.4-64.6c-9.4-21.9-31-36.1-54.9-36
				c-32.3,0.1-58.7,25.7-59.6,57.9h-15.3c-7.8,0-15.1-3.3-20.3-9c-8.4-9.4-20.4-14.7-33-14.8h-44.8c-15.7,0-30.2,8.3-38.2,21.8
				L89.4,74.1c-1.2,2-2.6,3.8-4.3,5.4l-33.7,33.9c-8.4,8.4-13.1,19.8-13,31.6v27.2c0,10.7,3.8,21,10.7,29.1l26.3,30.9
				c9.6,11.2,24.1,17,38.7,15.4l41.5-4.7c5.3-0.6,10.7,0.4,15.5,2.9l2,0.9c9.4,4.7,15.3,14.3,15.2,24.8v2.8c0,5.4,1,10.7,2.8,15.7
				l21.1,56.7c0,0.1,0.1,0.4,0.2,0.7L241.9,466c0.5,1.9-0.1,3.9-1.4,5.3l-3,3c-6.8,7-8.5,17.5-4.2,26.2c3.6,7,10.7,11.4,18.6,11.4
				h31.1c8.6,0,16.4-4.9,20.2-12.6l33.4-67.1c1.2-2.5,2.7-4.9,4.4-7.2l30.6-41.1c10.1-13.6,14.5-30.7,12.1-47.5l-1.5-10.3
				c-1.7-11.9,1.2-24.1,8.1-34l39.8-45.8c10.1-11.7,20.7-23.4,32.2-35.9C465.7,206.8,476.1,195.7,473.1,183.1z M311.5,17.1
				c23.6,0,42.7,19.1,42.7,42.7s-19.1,42.7-42.7,42.7s-42.7-19.1-42.7-42.7C268.8,36.2,287.9,17.1,311.5,17.1z M320,119.5v102.4
				c0,4.7-3.8,8.5-8.5,8.5s-8.5-3.8-8.5-8.5V119.5H320z M449.8,198.9c-11.7,12.6-22.3,24.5-32.6,36.3l-40.3,46.4
				c-9.8,13.6-13.9,30.4-11.6,47l1.5,10.3c1.7,12.4-1.5,24.9-8.9,34.9l-30.6,41.1c-2.3,3.1-4.3,6.4-6,9.8l-33.4,67.1
				c-0.9,1.9-2.8,3.1-4.9,3.1h-31.1c-1.4,0-2.6-0.7-3.3-1.9c-1.1-2.2-0.7-4.8,1-6.6l3-3c5.6-5.6,7.8-13.8,5.9-21.5L229,343.2
				c-0.1-0.3-0.1-0.6-0.2-0.8c-0.1-0.2-0.4-1.2-0.5-1.5l-21.1-56.8c-1.2-3.1-1.8-6.4-1.7-9.6v-2.8c0.1-17-9.5-32.6-24.8-40.1l-2-0.9
				c-7.7-3.9-16.3-5.5-24.9-4.5l-41.5,4.7c-9,1-18-2.6-23.9-9.5l-26.3-30.9c-4.3-5-6.6-11.4-6.6-18v-27.2c-0.1-7.3,2.8-14.4,8-19.6
				L97,91.7c2.7-2.6,5-5.5,6.9-8.7l10.8-18.3c5-8.3,13.9-13.4,23.5-13.4h44.8c7.8,0,15.2,3.3,20.3,9.1c8.4,9.3,20.4,14.7,33,14.7
				H253c0.3,0,0.5-0.1,0.8-0.2c4.5,17,16.2,31.2,32.1,38.8v108.2c0,14.1,11.5,25.6,25.6,25.6s25.6-11.5,25.6-25.6V113.6
				c1.4-0.7,2.8-1.4,4.2-2.2l39.8,76.3c5.4,9.6,17.4,13.3,27.2,8.3c3.5-1.7,6.9-3.6,10.3-5.5c3.1-1.7,6.3-3.4,9.4-5l0.9-0.5
				c5.9-4.1,13.1-6,20.2-5.4c3.6,1,6.3,3.8,7.3,7.3C456.7,187.9,456.8,191.4,449.8,198.9z"/>
			<path class="st0" d="M294.4,68.3c2.3,0,4.4-0.9,6-2.5c1.6-1.6,2.5-3.8,2.5-6c0-4.7,3.8-8.5,8.5-8.5c4.7,0,8.5-3.8,8.5-8.5
				s-3.8-8.5-8.5-8.5c-14.1,0-25.6,11.5-25.6,25.6c0,2.3,0.9,4.4,2.5,6C290,67.4,292.1,68.3,294.4,68.3z"/>
		</g>
	</g>
</g>
</svg>
