<?xml version="1.0" encoding="utf-8"?>
<!-- Generator: Adobe Illustrator 22.1.0, SVG Export Plug-In . SVG Version: 6.00 Build 0)  -->
<svg version="1.1" id="Capa_1" xmlns="http://www.w3.org/2000/svg" xmlns:xlink="http://www.w3.org/1999/xlink" x="0px" y="0px"
	 viewBox="0 0 512 512" style="enable-background:new 0 0 512 512;" xml:space="preserve">
<style type="text/css">
	.st0{fill:#FFFFFF;}
</style>
<g>
	<g>
		<path class="st0" d="M312.3,364c-0.4-7.2-3.6-14-8.8-19.3l-38-38c6.1-1.9,11.7-5.3,16.2-9.8l1-1c16.7-16.7,15.4-45.3-3-63.7
			c-8.8-8.7-20.1-14-31.9-14.7c-12.3-0.7-23.6,3.4-31.8,11.7l-1,1c-4.5,4.5-7.9,10.1-9.8,16.2l-38-38c-11.2-11.2-28.7-11.9-39.1-1.5
			l-34.4,34.4c-4.2,4.2-6,10.3-4.7,16.4c1.4,6.6,6,11.9,12.3,14.4c4,1.5,7.6,3.9,10.7,7l1.1,1.1c5.3,5.3,8.4,12,8.9,18.9
			c0.4,6.5-1.7,12.3-5.9,16.5s-10,6.3-16.5,5.9c-6.9-0.4-13.6-3.6-18.9-8.9l-1.1-1.1c-3.1-3.1-5.5-6.7-7-10.7
			c-2.4-6.3-7.8-10.9-14.4-12.3c-6-1.3-12.2,0.5-16.4,4.7L7.4,327.7c-10.4,10.4-9.7,27.9,1.5,39.1l38,38c-6.1,1.9-11.7,5.3-16.2,9.8
			l-1,1c-16.7,16.7-15.4,45.3,3,63.7c9.8,9.8,22.4,14.7,34.6,14.7c10.8,0,21.3-3.9,29.1-11.7l1-1c4.5-4.5,7.9-10,9.8-16.2l38,38
			c5.3,5.3,12.1,8.4,19.3,8.8c0.5,0,1.1,0,1.6,0c6.9,0,13.5-2.6,18.2-7.4l32.7-32.7c2.5,6.2,6.3,11.8,11.1,16.6l1.1,1.1
			c18.4,18.4,47,19.7,63.7,3c16.7-16.7,15.4-45.3-3-63.7l-1.1-1.1c-4.9-4.9-10.4-8.6-16.6-11.1l32.8-32.8
			C310.1,378.8,312.8,371.5,312.3,364z M290.9,369.7l-34.4,34.4c-4.2,4.2-6,10.3-4.7,16.4c1.4,6.6,6,11.9,12.3,14.4
			c4,1.5,7.6,3.9,10.7,7l1.1,1.1c10.6,10.6,11.9,26.5,3,35.4c-8.9,8.9-24.8,7.6-35.4-3l-1.1-1.1c-3.1-3.1-5.5-6.7-7-10.7
			c-2.4-6.3-7.8-10.9-14.4-12.3c-6-1.3-12.2,0.5-16.4,4.7l-34.4,34.4c-1.4,1.4-3.2,1.6-4.5,1.5c-2.2-0.1-4.5-1.2-6.3-3l-15.2-15.2
			l33.2-33.2c3.9-3.9,3.9-10.2,0-14.1s-10.2-3.9-14.1,0l-33.2,33.2l-10.4-10.4c-3.8-3.8-8.8-5.8-13.8-5.8c-1.7,0-3.5,0.2-5.2,0.7
			c-6.1,1.8-10.6,6.7-12,12.9c-0.8,3.9-2.7,7.3-5.4,10.1l-1,1c-8.9,8.9-24.8,7.6-35.4-3c-10.6-10.6-11.9-26.5-3-35.4l1-1
			c2.7-2.7,6.1-4.6,10.1-5.4c6.3-1.3,11.1-5.8,12.9-12c2-6.6,0-13.9-5.1-19L23,352.7c-1.8-1.8-2.9-4.1-3-6.3
			c-0.1-1.3,0.1-3.1,1.5-4.5l32.7-32.7c2.5,6.2,6.3,11.8,11.1,16.6l1.1,1.1c18.4,18.4,47,19.7,63.7,3c16.7-16.7,15.4-45.3-3-63.7
			l-1.1-1.1c-4.8-4.9-10.4-8.6-16.6-11.1l32.8-32.8c2.5-2.5,7.5-1.8,10.8,1.5l39.7,39.7c5.1,5.1,12.4,7,19,5.1
			c6.1-1.8,10.6-6.7,12-12.9c0.8-3.9,2.7-7.3,5.4-10.1l1-1c4.2-4.2,10-6.2,16.5-5.9c6.9,0.4,13.6,3.6,18.9,8.9
			c10.6,10.6,11.9,26.5,3,35.4l-1,1c-2.7,2.7-6.1,4.6-10.1,5.4c-6.3,1.3-11.1,5.8-12.9,12c-2,6.6,0,13.9,5.1,19l39.7,39.7
			c1.8,1.8,2.9,4.1,3,6.3C292.5,366.5,292.3,368.3,290.9,369.7z"/>
	</g>
</g>
<g>
	<g>
		<path class="st0" d="M202.9,400.8c-1.9-1.9-4.4-2.9-7.1-2.9s-5.2,1.1-7.1,2.9s-2.9,4.4-2.9,7.1s1.1,5.2,2.9,7.1
			c1.9,1.9,4.4,2.9,7.1,2.9c2.6,0,5.2-1.1,7.1-2.9s2.9-4.4,2.9-7.1C205.8,405.2,204.8,402.6,202.9,400.8z"/>
	</g>
</g>
<g>
	<g>
		<path class="st0" d="M415.3,127c-1.9-1.9-4.4-2.9-7.1-2.9s-5.2,1.1-7.1,2.9c-1.9,1.9-2.9,4.4-2.9,7.1s1.1,5.2,2.9,7.1
			s4.4,2.9,7.1,2.9s5.2-1.1,7.1-2.9c1.9-1.9,2.9-4.4,2.9-7.1S417.1,128.9,415.3,127z"/>
	</g>
</g>
<g>
	<g>
		<path class="st0" d="M490.1,229.8c-5.4-5.4-12-9.6-19.1-12.1l33.5-33.5c5.1-5.1,7.8-12.3,7.3-19.8c-0.4-7.2-3.6-14-8.8-19.3
			l-37.2-37.2c5.2-2,10-5.1,14-9l1-1c16.7-16.7,15.4-45.3-3-63.7c-18.4-18.4-47-19.7-63.7-3l-1,1c-3.9,3.9-7,8.7-9,14L366.8,8.9
			C355.6-2.3,338.1-3,327.7,7.4l-33.5,33.5c-2.5-7.1-6.6-13.6-12.1-19.1l-1.1-1.1c-18.4-18.4-47-19.7-63.7-3
			c-16.7,16.7-15.4,45.3,3,63.7l1.1,1.1c5.4,5.4,12,9.6,19.1,12.1L207,128.1c-10.4,10.4-9.7,27.9,1.5,39.1l39.8,39.7
			c5.1,5.1,12.4,7,19,5.1c6.1-1.8,10.6-6.7,12-12.9c0.8-3.9,2.7-7.3,5.4-10.1l1-1c4.2-4.2,10-6.3,16.5-5.9
			c6.9,0.4,13.6,3.6,18.9,8.9c5.3,5.3,8.4,12,8.9,18.9c0.4,6.5-1.7,12.3-5.9,16.5l-1,1c-2.7,2.7-6.1,4.6-10.1,5.4
			c-6.3,1.3-11.1,5.8-12.9,12c-2,6.6,0,13.9,5.1,19l39.7,39.7c5.9,5.9,13.5,8.9,20.9,8.9c6.7,0,13.2-2.4,18.2-7.4l33.5-33.5
			c2.5,7.1,6.6,13.6,12.1,19.1l1.1,1.1c18.4,18.4,47,19.7,63.7,3c16.7-16.7,15.4-45.3-3-63.7L490.1,229.8z M480.1,280.5
			c-8.9,8.9-24.8,7.6-35.4-3l-1.1-1.1c-3.5-3.5-6.1-7.7-7.5-12.2c-2.1-6.5-7.6-11.6-14.2-13.2c-6.2-1.5-12.5,0.2-16.9,4.6
			l-35.2,35.2c-1.4,1.4-3.2,1.6-4.5,1.5c-2.2-0.1-4.5-1.2-6.3-3l-38-38c6.1-1.9,11.7-5.3,16.2-9.8l1-1c8.3-8.3,12.4-19.6,11.7-31.8
			c-0.7-11.8-5.9-23.1-14.7-31.9s-20.1-14-31.9-14.7c-12.3-0.7-23.6,3.4-31.8,11.7l-1,1c-4.5,4.5-7.9,10.1-9.8,16.2l-38-38
			c-1.8-1.8-2.9-4.1-3-6.3c-0.1-1.3,0.1-3.1,1.5-4.5l35.2-35.2c4.4-4.4,6.1-10.7,4.6-16.9c-1.6-6.7-6.6-12.1-13.2-14.2
			c-4.5-1.5-8.7-4.1-12.2-7.5l-1.1-1.1c-10.6-10.6-11.9-26.5-3-35.4c8.9-8.9,24.8-7.6,35.4,3l1.1,1.1c3.5,3.5,6.1,7.7,7.6,12.2
			c2.1,6.5,7.6,11.6,14.2,13.2c6.2,1.5,12.5-0.2,16.9-4.6l35.2-35.2c2.5-2.5,7.5-1.8,10.8,1.5l38.9,38.9c4.9,4.9,12,6.9,18.4,5.2
			c6-1.6,10.6-6.1,12.2-12c0.9-3.4,2.7-6.3,5.1-8.8l1-1c8.9-8.9,24.8-7.6,35.4,3c10.6,10.6,11.9,26.5,3,35.4l-1,1
			c-2.4,2.4-5.4,4.1-8.8,5.1c-6,1.7-10.4,6.2-12,12.2c-1.7,6.5,0.3,13.5,5.2,18.4l38.8,38.8c1.8,1.8,2.9,4.1,3,6.3
			c0.1,1.3-0.1,3.1-1.5,4.5l-16,16L441.3,153c-3.9-3.9-10.2-3.9-14.1,0s-3.9,10.2,0,14.1l33.1,33.1l-5,5c-4.4,4.4-6.1,10.7-4.6,16.9
			c1.6,6.7,6.6,12.1,13.1,14.2c4.5,1.5,8.7,4.1,12.2,7.6l1.1,1.1C487.7,255.7,489,271.5,480.1,280.5z"/>
	</g>
</g>
</svg>
