<?xml version="1.0" encoding="utf-8"?>
<!-- Generator: Adobe Illustrator 22.1.0, SVG Export Plug-In . SVG Version: 6.00 Build 0)  -->
<svg version="1.1" id="Capa_1" xmlns="http://www.w3.org/2000/svg" xmlns:xlink="http://www.w3.org/1999/xlink" x="0px" y="0px"
	 viewBox="0 0 512 512" style="enable-background:new 0 0 512 512;" xml:space="preserve">
<style type="text/css">
	.st0{fill:#2EBED7;}
</style>
<g transform="translate(1 1)">
	<g>
		<path class="st0" d="M511,104.2C509.3,40.3,394.8-1,255-1S0.7,40.3-1,104.2c0,0.5,0,1,0,1.4V255v149.3C-1,469.1,114.2,511,255,511
			s256-41.9,256-106.7V255V105.7C511,105.2,511,104.7,511,104.2z M41.7,167.1c0.2,0.1,0.3,0.2,0.5,0.3c1.1,0.7,2.2,1.3,3.3,2
			c0.3,0.2,0.5,0.3,0.8,0.5c1.4,0.8,2.8,1.6,4.2,2.3c0.4,0.2,0.8,0.4,1.2,0.6c1.1,0.6,2.1,1.1,3.2,1.7c0.5,0.3,1,0.5,1.5,0.8
			c1,0.5,2.1,1,3.1,1.5c0.5,0.2,1,0.5,1.5,0.7c1.4,0.6,2.7,1.3,4.1,1.9c0.2,0.1,0.4,0.2,0.6,0.3c1.6,0.7,3.2,1.4,4.8,2.1
			c0.5,0.2,1,0.4,1.4,0.6c1.2,0.5,2.4,1,3.6,1.4c0.6,0.2,1.2,0.5,1.7,0.7c1.2,0.5,2.4,0.9,3.6,1.4c0.5,0.2,1.1,0.4,1.6,0.6
			c1.7,0.6,3.5,1.3,5.3,1.9c0,0,0,0,0,0c1.8,0.6,3.6,1.2,5.4,1.8c0.6,0.2,1.1,0.4,1.7,0.5c1.3,0.4,2.6,0.8,3.9,1.2
			c0.6,0.2,1.3,0.4,1.9,0.6c1.3,0.4,2.7,0.8,4.1,1.2c0.3,0.1,0.6,0.2,0.9,0.3v104.7c-39.5-12.4-64-28.6-64-43.6L41.7,167.1
			L41.7,167.1z M154.3,204.6c1.7,0.3,3.4,0.5,5.1,0.8c0.5,0.1,1.1,0.2,1.6,0.2c2.2,0.3,4.5,0.7,6.7,1c0.5,0.1,1.1,0.1,1.6,0.2
			c1.7,0.2,3.5,0.5,5.2,0.7c0.8,0.1,1.6,0.2,2.3,0.3c1.6,0.2,3.2,0.4,4.8,0.6c0.8,0.1,1.5,0.2,2.3,0.3c1.9,0.2,3.8,0.4,5.7,0.6
			c0.4,0,0.9,0.1,1.3,0.1c2.3,0.2,4.7,0.4,7.1,0.6c0.6,0.1,1.3,0.1,1.9,0.2c1.8,0.1,3.5,0.3,5.3,0.4c0.8,0.1,1.6,0.1,2.5,0.2
			c1.7,0.1,3.3,0.2,5,0.3c0.8,0,1.6,0.1,2.4,0.1c2.1,0.1,4.3,0.2,6.4,0.3c0.3,0,0.6,0,0.9,0c2.4,0.1,4.9,0.2,7.4,0.3
			c0.7,0,1.5,0,2.2,0.1c0.6,0,1.2,0,1.8,0.1v106.6c-30.9-1.1-59.8-4.5-85.3-9.4V203.5c1.2,0.2,2.5,0.4,3.7,0.6
			C152.8,204.3,153.5,204.4,154.3,204.6z M280.3,211.9c2.5-0.1,4.9-0.2,7.4-0.3c0.3,0,0.6,0,0.9,0c2.1-0.1,4.3-0.2,6.4-0.3
			c0.8,0,1.6-0.1,2.4-0.1c1.7-0.1,3.4-0.2,5-0.3c0.8-0.1,1.7-0.1,2.5-0.2c1.8-0.1,3.5-0.3,5.3-0.4c0.6-0.1,1.3-0.1,1.9-0.2
			c2.4-0.2,4.7-0.4,7.1-0.6c0.4,0,0.9-0.1,1.3-0.1c1.9-0.2,3.8-0.4,5.7-0.6c0.8-0.1,1.5-0.2,2.3-0.3c1.6-0.2,3.2-0.4,4.8-0.6
			c0.8-0.1,1.6-0.2,2.3-0.3c1.8-0.2,3.5-0.4,5.2-0.7c0.5-0.1,1.1-0.1,1.6-0.2c2.2-0.3,4.5-0.6,6.7-1c0.5-0.1,1.1-0.2,1.6-0.2
			c1.7-0.3,3.4-0.5,5.1-0.8c0.7-0.1,1.5-0.2,2.2-0.4c1.2-0.2,2.5-0.4,3.7-0.6v105.7c-25.5,4.9-54.4,8.3-85.3,9.4V212
			c0.6,0,1.2,0,1.8-0.1C278.8,211.9,279.6,211.9,280.3,211.9z M468.3,404.3c0,29.5-95,64-213.3,64s-213.3-34.5-213.3-64v-87.9
			c0.2,0.1,0.3,0.2,0.5,0.3c1.1,0.7,2.2,1.3,3.3,2c0.3,0.2,0.5,0.3,0.8,0.5c1.4,0.8,2.8,1.6,4.2,2.3c0.4,0.2,0.8,0.4,1.2,0.6
			c1.1,0.6,2.1,1.1,3.2,1.7c0.5,0.3,1,0.5,1.5,0.8c1,0.5,2.1,1,3.1,1.5c0.5,0.2,1,0.5,1.5,0.7c1.4,0.6,2.7,1.3,4.1,1.9
			c0.2,0.1,0.4,0.2,0.6,0.3c1.6,0.7,3.2,1.4,4.8,2.1c0.5,0.2,1,0.4,1.4,0.6c1.2,0.5,2.4,1,3.6,1.4c0.6,0.2,1.2,0.5,1.7,0.7
			c1.2,0.5,2.4,0.9,3.6,1.4c0.5,0.2,1.1,0.4,1.6,0.6c1.7,0.6,3.5,1.3,5.3,1.9c0,0,0,0,0,0c1.8,0.6,3.6,1.2,5.4,1.8
			c0.6,0.2,1.1,0.4,1.7,0.5c1.3,0.4,2.6,0.8,3.9,1.2c0.6,0.2,1.3,0.4,1.9,0.6c1.3,0.4,2.7,0.8,4.1,1.2c0.6,0.2,1.1,0.3,1.7,0.5
			c1.9,0.5,3.8,1.1,5.8,1.6c0.2,0.1,0.5,0.1,0.7,0.2c1.7,0.5,3.5,0.9,5.2,1.3c0.6,0.2,1.3,0.3,2,0.5c1.4,0.3,2.8,0.7,4.2,1
			c0.7,0.2,1.4,0.3,2.1,0.5c1.5,0.3,3,0.7,4.6,1c0.6,0.1,1.1,0.2,1.7,0.4c2.1,0.4,4.2,0.9,6.3,1.3c0.4,0.1,0.8,0.2,1.2,0.2
			c1.7,0.3,3.5,0.7,5.2,1c0.7,0.1,1.4,0.3,2.1,0.4c1.5,0.3,3,0.5,4.5,0.8c0.7,0.1,1.5,0.2,2.2,0.4c1.7,0.3,3.4,0.5,5.1,0.8
			c0.5,0.1,1.1,0.2,1.6,0.2c2.2,0.3,4.5,0.7,6.7,1c0.5,0.1,1.1,0.1,1.6,0.2c1.7,0.2,3.5,0.5,5.2,0.7c0.8,0.1,1.6,0.2,2.3,0.3
			c1.6,0.2,3.2,0.4,4.8,0.6c0.8,0.1,1.5,0.2,2.3,0.3c1.9,0.2,3.8,0.4,5.7,0.6c0.4,0,0.9,0.1,1.3,0.1c2.3,0.2,4.7,0.4,7.1,0.6
			c0.6,0.1,1.3,0.1,1.9,0.2c1.8,0.1,3.5,0.3,5.3,0.4c0.8,0.1,1.6,0.1,2.5,0.2c1.7,0.1,3.3,0.2,5,0.3c0.8,0,1.6,0.1,2.4,0.1
			c2.1,0.1,4.3,0.2,6.4,0.3c0.3,0,0.6,0,0.9,0c2.4,0.1,4.9,0.2,7.4,0.3c0.7,0,1.5,0,2.2,0.1c1.8,0.1,3.6,0.1,5.3,0.2
			c0.9,0,1.7,0,2.6,0.1c1.8,0,3.5,0.1,5.3,0.1c0.8,0,1.6,0,2.3,0c2.5,0,5,0,7.6,0c2.5,0,5.1,0,7.6,0c0.8,0,1.6,0,2.3,0
			c1.8,0,3.5-0.1,5.3-0.1c0.9,0,1.7,0,2.6-0.1c1.8,0,3.6-0.1,5.3-0.2c0.7,0,1.5,0,2.2-0.1c2.5-0.1,4.9-0.2,7.4-0.3
			c0.3,0,0.6,0,0.9,0c2.1-0.1,4.3-0.2,6.4-0.3c0.8,0,1.6-0.1,2.4-0.1c1.7-0.1,3.4-0.2,5-0.3c0.8-0.1,1.7-0.1,2.5-0.2
			c1.8-0.1,3.5-0.3,5.3-0.4c0.6-0.1,1.3-0.1,1.9-0.2c2.4-0.2,4.7-0.4,7.1-0.6c0.5,0,0.9-0.1,1.3-0.1c1.9-0.2,3.8-0.4,5.7-0.6
			c0.8-0.1,1.5-0.2,2.3-0.3c1.6-0.2,3.2-0.4,4.8-0.6c0.8-0.1,1.6-0.2,2.3-0.3c1.8-0.2,3.5-0.4,5.2-0.7c0.5-0.1,1.1-0.1,1.6-0.2
			c2.2-0.3,4.5-0.6,6.7-1c0.5-0.1,1.1-0.2,1.6-0.2c1.7-0.3,3.4-0.5,5.1-0.8c0.7-0.1,1.5-0.2,2.2-0.4c1.5-0.3,3-0.5,4.5-0.8
			c0.7-0.1,1.4-0.3,2.1-0.4c1.7-0.3,3.5-0.6,5.2-1c0.4-0.1,0.8-0.2,1.2-0.2c2.1-0.4,4.2-0.8,6.3-1.3c0.6-0.1,1.1-0.2,1.7-0.4
			c1.5-0.3,3-0.7,4.6-1c0.7-0.2,1.4-0.3,2.1-0.5c1.4-0.3,2.8-0.7,4.2-1c0.6-0.2,1.3-0.3,2-0.5c1.8-0.4,3.5-0.9,5.2-1.3
			c0.2-0.1,0.5-0.1,0.7-0.2c2-0.5,3.9-1,5.8-1.6c0.6-0.2,1.1-0.3,1.7-0.5c1.4-0.4,2.7-0.8,4.1-1.2c0.6-0.2,1.3-0.4,1.9-0.6
			c1.3-0.4,2.6-0.8,3.9-1.2c0.6-0.2,1.1-0.4,1.7-0.5c1.8-0.6,3.6-1.2,5.4-1.8c0,0,0,0,0,0c1.8-0.6,3.5-1.2,5.3-1.9
			c0.5-0.2,1.1-0.4,1.6-0.6c1.2-0.5,2.4-0.9,3.6-1.4c0.6-0.2,1.2-0.5,1.8-0.7c1.2-0.5,2.4-1,3.6-1.4c0.5-0.2,1-0.4,1.5-0.6
			c1.6-0.7,3.2-1.4,4.8-2.1c0.2-0.1,0.4-0.2,0.6-0.3c1.4-0.6,2.8-1.2,4.1-1.9c0.5-0.2,1-0.5,1.5-0.7c1.1-0.5,2.1-1,3.1-1.5
			c0.5-0.3,1-0.5,1.5-0.8c1.1-0.6,2.1-1.1,3.2-1.7c0.4-0.2,0.8-0.4,1.2-0.6c1.4-0.8,2.8-1.5,4.2-2.3c0.3-0.2,0.5-0.3,0.8-0.5
			c1.1-0.6,2.2-1.3,3.2-1.9c0.2-0.1,0.3-0.2,0.5-0.3L468.3,404.3L468.3,404.3z M404.3,298.6V193.9c0.3-0.1,0.6-0.2,0.9-0.3
			c1.4-0.4,2.7-0.8,4.1-1.2c0.6-0.2,1.3-0.4,1.9-0.6c1.3-0.4,2.6-0.8,3.9-1.2c0.6-0.2,1.1-0.4,1.7-0.5c1.8-0.6,3.6-1.2,5.4-1.8
			c0,0,0,0,0,0c1.8-0.6,3.5-1.2,5.3-1.9c0.5-0.2,1.1-0.4,1.6-0.6c1.2-0.5,2.4-0.9,3.6-1.4c0.6-0.2,1.2-0.5,1.7-0.7
			c1.2-0.5,2.4-1,3.6-1.4c0.5-0.2,1-0.4,1.4-0.6c1.6-0.7,3.2-1.4,4.8-2.1c0.2-0.1,0.4-0.2,0.6-0.3c1.4-0.6,2.8-1.2,4.1-1.9
			c0.5-0.2,1-0.5,1.5-0.7c1.1-0.5,2.1-1,3.1-1.5c0.5-0.3,1-0.5,1.5-0.8c1.1-0.6,2.2-1.1,3.2-1.7c0.4-0.2,0.8-0.4,1.2-0.6
			c1.4-0.8,2.8-1.5,4.2-2.3c0.3-0.2,0.5-0.3,0.8-0.5c1.1-0.6,2.2-1.3,3.3-2c0.2-0.1,0.3-0.2,0.5-0.3V255
			C468.3,269.9,443.9,286.2,404.3,298.6z M255,169.7c-118.4,0-213.3-34.5-213.3-64s95-64,213.3-64s213.3,34.5,213.3,64
			S373.4,169.7,255,169.7z"/>
	</g>
</g>
</svg>
