<?xml version="1.0" encoding="iso-8859-1"?>
<!-- Generator: Adobe Illustrator 19.0.0, SVG Export Plug-In . SVG Version: 6.00 Build 0)  -->
<svg version="1.1" id="Capa_1" xmlns="http://www.w3.org/2000/svg" xmlns:xlink="http://www.w3.org/1999/xlink" x="0px" y="0px"
	 viewBox="0 0 512.249 512.249" style="enable-background:new 0 0 512.249 512.249;" xml:space="preserve">
<g transform="translate(1 1)">
	<g>
		<g>
			<path d="M484.952,152.418c35.062-35.062,35.062-91.876,0-126.938c-35.028-35.028-91.766-35.059-126.836-0.097
				c-0.031,0.031-0.065,0.056-0.096,0.087L69.95,313.217c-0.448,0.411-0.877,0.841-1.288,1.287l-33.158,33.12
				c-2.796,2.793-4.762,6.308-5.677,10.153L-0.403,484.775c-3.68,15.461,10.232,29.374,25.693,25.693l126.997-30.229
				c3.837-0.913,7.346-2.873,10.136-5.66l256.679-256.39c0.012-0.012,0.026-0.022,0.038-0.034c0.012-0.012,0.022-0.025,0.034-0.037
				l65.733-65.659C484.922,152.444,484.938,152.432,484.952,152.418z M454.783,55.65c12.966,12.966,16.782,31.591,11.473,47.901
				l-59.374-59.374C423.191,38.868,441.816,42.683,454.783,55.65z M194.236,351.178c-0.012-0.004-0.023-0.008-0.035-0.012
				c-0.283-0.099-0.568-0.191-0.857-0.278c-0.081-0.025-0.163-0.048-0.244-0.072c-0.177-0.051-0.354-0.102-0.533-0.149
				c-0.055-0.014-0.11-0.027-0.165-0.041c-0.143-0.036-0.286-0.07-0.43-0.103c-0.123-0.028-0.245-0.059-0.369-0.085
				c-0.078-0.017-0.156-0.031-0.234-0.047c-0.166-0.033-0.333-0.063-0.5-0.092c-0.056-0.01-0.112-0.022-0.169-0.031
				c-0.031-0.005-0.062-0.012-0.094-0.017c-0.096-0.016-0.192-0.029-0.288-0.044c-0.148-0.022-0.298-0.041-0.447-0.06
				c-0.206-0.027-0.413-0.052-0.62-0.072c-0.13-0.013-0.261-0.023-0.392-0.033c-0.227-0.018-0.455-0.034-0.684-0.045
				c-0.118-0.006-0.236-0.008-0.354-0.012c-0.24-0.007-0.481-0.012-0.722-0.011c-0.115,0-0.23,0.003-0.346,0.006
				c-0.243,0.005-0.485,0.012-0.729,0.025c-0.12,0.006-0.239,0.015-0.359,0.024c-0.251,0.017-0.501,0.038-0.749,0.064
				c-0.041,0.004-0.081,0.006-0.122,0.01l-30.264,3.357l5.165-26.423c0.186-0.943,0.305-1.907,0.362-2.885
				c0.094-1.592,0.011-3.163-0.24-4.69c-0.005-0.031-0.012-0.061-0.017-0.092c-0.051-0.303-0.107-0.605-0.171-0.905
				c-0.049-0.231-0.106-0.458-0.162-0.686c-0.023-0.092-0.043-0.185-0.067-0.277c-2.177-8.36-9.209-14.529-17.624-15.724
				l165.501-165.315l66.598,66.598L208.309,368.44C207.243,360.531,201.788,353.823,194.236,351.178z M136.54,440.129
				l-87.409,20.806l20.803-87.396l24.235-24.208l18.089-2.014l-6.113,31.274c-0.102,0.477-0.185,0.959-0.254,1.445
				c-0.002,0.014-0.004,0.028-0.006,0.042c-0.046,0.327-0.085,0.655-0.116,0.985c-0.006,0.065-0.011,0.129-0.016,0.193
				c-0.023,0.269-0.042,0.539-0.054,0.811c-0.006,0.13-0.009,0.259-0.013,0.389c-0.005,0.201-0.01,0.401-0.01,0.603
				c0,0.201,0.004,0.402,0.01,0.603c0.004,0.13,0.007,0.259,0.013,0.389c0.012,0.271,0.031,0.541,0.054,0.811
				c0.006,0.064,0.01,0.129,0.016,0.193c0.031,0.33,0.07,0.658,0.116,0.985c0.002,0.014,0.004,0.028,0.006,0.042
				c0.151,1.057,0.38,2.093,0.684,3.103c0.011,0.037,0.021,0.074,0.032,0.111c0.076,0.248,0.159,0.494,0.244,0.738
				c0.036,0.105,0.07,0.212,0.108,0.317c0.052,0.143,0.109,0.283,0.164,0.424c1.057,2.733,2.642,5.158,4.614,7.176
				c0.063,0.064,0.123,0.131,0.186,0.195c0.058,0.058,0.119,0.112,0.177,0.17c2.021,1.979,4.452,3.57,7.192,4.629
				c0.141,0.055,0.282,0.112,0.424,0.164c0.104,0.038,0.211,0.072,0.316,0.108c0.245,0.085,0.491,0.168,0.74,0.245
				c0.036,0.011,0.073,0.021,0.109,0.031c1.01,0.304,2.047,0.533,3.104,0.684c0.014,0.002,0.028,0.004,0.042,0.006
				c0.327,0.046,0.655,0.085,0.986,0.116c0.065,0.006,0.129,0.011,0.193,0.016c0.269,0.023,0.539,0.042,0.811,0.054
				c0.13,0.006,0.259,0.009,0.389,0.013c0.201,0.005,0.401,0.01,0.603,0.01c0.201,0,0.402-0.004,0.603-0.01
				c0.13-0.004,0.259-0.007,0.389-0.013c0.271-0.012,0.541-0.031,0.811-0.054c0.065-0.006,0.129-0.01,0.193-0.016
				c0.33-0.031,0.659-0.07,0.986-0.116c0.014-0.002,0.028-0.004,0.042-0.006c0.486-0.07,0.968-0.152,1.445-0.254l31.274-6.113
				l-2.021,18.156L136.54,440.129z M404.063,172.906l-66.598-66.598l35.624-35.584l66.598,66.598L404.063,172.906z"/>
			<path d="M312.76,197.307c-8.331-8.331-21.839-8.331-30.17,0l-85.333,85.333c-8.331,8.331-8.331,21.839,0,30.17
				c8.331,8.331,21.839,8.331,30.17,0l85.333-85.333C321.092,219.146,321.092,205.638,312.76,197.307z"/>
		</g>
	</g>
</g>
<g>
</g>
<g>
</g>
<g>
</g>
<g>
</g>
<g>
</g>
<g>
</g>
<g>
</g>
<g>
</g>
<g>
</g>
<g>
</g>
<g>
</g>
<g>
</g>
<g>
</g>
<g>
</g>
<g>
</g>
</svg>
