<?xml version="1.0" encoding="iso-8859-1"?>
<!-- Generator: Adobe Illustrator 19.0.0, SVG Export Plug-In . SVG Version: 6.00 Build 0)  -->
<svg version="1.1" id="Capa_1" xmlns="http://www.w3.org/2000/svg" xmlns:xlink="http://www.w3.org/1999/xlink" x="0px" y="0px"
	 viewBox="0 0 512 512" style="enable-background:new 0 0 512 512;" xml:space="preserve">
<g transform="translate(1 1)">
	<g>
		<path d="M270.741,510.504c0.159-0.01,0.317-0.02,0.475-0.03c45.33-2.835,87.459-17.46,123.359-40.856
			c0.232-0.151,0.462-0.304,0.693-0.456c1.683-1.105,3.353-2.229,5.009-3.372c0.441-0.304,0.882-0.609,1.322-0.916
			c0.868-0.607,1.734-1.216,2.594-1.834c0.62-0.445,1.234-0.898,1.85-1.349c1.219-0.892,2.431-1.793,3.634-2.706
			c0.57-0.433,1.139-0.87,1.706-1.308c1.179-0.911,2.349-1.832,3.511-2.763c0.622-0.498,1.245-0.996,1.862-1.5
			c0.759-0.62,1.514-1.244,2.265-1.872c0.539-0.451,1.074-0.906,1.61-1.361c1.259-1.069,2.507-2.15,3.745-3.243
			c0.442-0.391,0.884-0.781,1.324-1.175c2.633-2.357,5.214-4.77,7.747-7.233c0.186-0.181,0.371-0.362,0.557-0.544
			C481.506,391.511,511,326.704,511,255C511,113.618,396.382-1,255-1S-1,113.618-1,255c0,75.921,33.063,144.112,85.561,190.993
			c0.192,0.172,0.385,0.342,0.578,0.513c1.586,1.407,3.189,2.795,4.809,4.164c0.284,0.24,0.566,0.481,0.851,0.719
			c0.861,0.721,1.727,1.437,2.598,2.147c0.325,0.265,0.653,0.525,0.979,0.788c1.478,1.192,2.968,2.369,4.473,3.529
			c0.438,0.338,0.877,0.675,1.317,1.009c2.731,2.077,5.504,4.101,8.32,6.07c0.373,0.261,0.747,0.519,1.121,0.777
			c1.724,1.192,3.463,2.363,5.218,3.513c0.194,0.127,0.387,0.256,0.582,0.383c3.157,2.058,6.364,4.046,9.616,5.966
			c0.023,0.014,0.046,0.027,0.069,0.041c33.67,19.87,72.281,32.248,113.55,34.852c0.231,0.015,0.462,0.03,0.694,0.044
			c3.709,0.224,7.438,0.37,11.188,0.434c0.49,0.008,0.981,0.013,1.471,0.019c1.003,0.012,2.002,0.038,3.007,0.038
			c1.012,0,2.018-0.027,3.027-0.038c0.475-0.006,0.949-0.01,1.423-0.018C263.235,510.879,266.998,510.731,270.741,510.504z
			 M396.767,414.396c-1.363,1.214-2.743,2.409-4.135,3.587c-0.19,0.161-0.38,0.322-0.571,0.483c-1.436,1.206-2.887,2.394-4.353,3.56
			c-0.077,0.061-0.152,0.123-0.229,0.184c-3.185,2.528-6.439,4.962-9.759,7.3c-0.054,0.038-0.109,0.075-0.163,0.113
			c-1.554,1.093-3.124,2.162-4.706,3.212c-0.203,0.135-0.408,0.268-0.612,0.403c-1.504,0.991-3.019,1.963-4.548,2.916
			c-0.156,0.097-0.311,0.195-0.467,0.291c-33.045,20.469-71.668,31.873-112.232,31.873c-40.559,0-79.172-11.401-112.211-31.868
			c-0.16-0.099-0.319-0.199-0.478-0.299c-1.535-0.957-3.058-1.934-4.568-2.929c-0.188-0.124-0.376-0.246-0.563-0.371
			c-1.626-1.079-3.24-2.178-4.836-3.302c-0.006-0.004-0.011-0.008-0.017-0.012c-4.987-3.512-9.826-7.242-14.505-11.178
			c-0.091-0.076-0.181-0.153-0.272-0.23c-12.52-10.568-23.886-22.625-33.825-36.002c3.014-14.973,10.227-28.234,20.406-38.691
			l138.422,99.551c7.947,5.715,18.763,5.289,26.236-1.034L395.66,334.601c15.559,11.281,26.688,27.939,30.631,47.528
			c-8.695,11.703-18.485,22.396-29.184,31.966C396.994,414.195,396.88,414.296,396.767,414.396z M212.85,248.984
			c-27.703-10.247-49.804-64.313-49.804-115.364c0-6.359,0.645-12.566,1.875-18.561c0.849-0.787,1.991-1.747,3.446-2.774
			c15.17-10.704,38.572-10.65,75.619,11.656c41.082,24.732,75.976,29.555,103.284,19.46c-0.936,46.981-21.935,94.983-49.631,105.398
			c-12.626,4.758-21.313,16.638-21.313,30.379v5.227c0,17.323,13.54,34.581,32.384,34.581h37.824c0.499,0,0.992,0.023,1.489,0.031
			l-94.087,79.609l-108.209-77.822c5.704-1.189,11.64-1.818,17.746-1.818h37.824c18.857,0,32.363-17.262,32.363-34.581v-5.141
			C233.66,265.952,225.567,253.713,212.85,248.984z M255.896,41.678c3.199,0.026,6.488,0.219,9.774,0.587
			c33.642,3.752,62.276,26.472,74.661,56.982c-14.826,10.413-37.747,10.168-74.336-11.86c-25.8-15.534-49.197-23.227-69.851-24.352
			c16.051-13.365,36.754-21.398,59.42-21.361C255.674,41.674,255.785,41.678,255.896,41.678z M468.333,255
			c0,28.217-5.491,55.148-15.442,79.8c-21.701-35.472-61.253-58.482-106.356-58.482h-11.96
			c40.131-31.18,61.229-99.341,54.048-159.253c-0.705-5.874-1.802-11.636-3.257-17.261c-0.051-0.214-0.113-0.426-0.17-0.638
			c-1.597-6.049-3.607-11.94-6.008-17.633C433.164,120.243,468.333,183.513,468.333,255z M130.838,81.513
			c-2.447,5.826-4.497,11.859-6.114,18.068c-0.007,0.025-0.014,0.051-0.021,0.076c-2.82,10.85-4.323,22.23-4.323,33.964
			c0,56.077,20.198,114.577,55.497,142.699h-12.404c-26.573,0-51.214,7.992-71.419,21.809c-0.767,0.461-1.5,0.985-2.211,1.548
			c-13.131,9.41-24.285,21.325-32.732,35.134C47.159,310.154,41.667,283.22,41.667,255
			C41.667,183.501,76.848,120.222,130.838,81.513z"/>
	</g>
</g>
<g>
</g>
<g>
</g>
<g>
</g>
<g>
</g>
<g>
</g>
<g>
</g>
<g>
</g>
<g>
</g>
<g>
</g>
<g>
</g>
<g>
</g>
<g>
</g>
<g>
</g>
<g>
</g>
<g>
</g>
</svg>
