<?xml version="1.0" encoding="utf-8"?>
<!-- Generator: Adobe Illustrator 17.0.0, SVG Export Plug-In . SVG Version: 6.00 Build 0)  -->
<!DOCTYPE svg PUBLIC "-//W3C//DTD SVG 1.1//EN" "http://www.w3.org/Graphics/SVG/1.1/DTD/svg11.dtd">
<svg version="1.1" id="Capa_1" xmlns="http://www.w3.org/2000/svg" xmlns:xlink="http://www.w3.org/1999/xlink" x="0px" y="0px"
	 width="604.071px" height="609.344px" viewBox="-5.276 116.877 604.071 609.344"
	 enable-background="new -5.276 116.877 604.071 609.344" xml:space="preserve">
<path stroke="#000000" stroke-miterlimit="10" d="M578.989,413.884c31.941-31.252,14.263-85.6-29.99-92.02l-141.373-15.049
	c-0.472-0.088-1.685-0.97-2.312-2.247l-59.856-149.537c-9.766-19.893-27.292-30.725-46.648-31.645
	c-21.742,0.919-39.284,11.761-48.227,29.908L189.19,306.279c0.138-0.449-1.095,0.446-2.542,0.658L47.18,321.746
	c-45.219,6.542-62.891,60.955-30.87,92.196l102.557,101.22c1.128,1.103,1.603,2.571,1.354,4.031L96.888,655.28
	c-7.571,44.096,38.73,77.731,78.332,56.898c81.56-42.87,122.432-64.283,122.616-64.241l122.189,64.244
	c39.618,20.818,85.88-12.789,78.354-56.882l-23.368-136.142c-0.242-1.42,0.229-2.868,1.277-3.888L578.989,413.884z"/>
</svg>
