<?xml version="1.0" encoding="utf-8"?>
<!-- Generator: Adobe Illustrator 22.1.0, SVG Export Plug-In . SVG Version: 6.00 Build 0)  -->
<svg version="1.1" id="Capa_1" xmlns="http://www.w3.org/2000/svg" xmlns:xlink="http://www.w3.org/1999/xlink" x="0px" y="0px"
	 viewBox="0 0 512 512" style="enable-background:new 0 0 512 512;" xml:space="preserve">
<style type="text/css">
	.st0{fill:#01BCD6;}
</style>
<g transform="translate(1 1)">
	<g>
		<path class="st0" d="M447,116.3h-21.3v0c0-11.8-9.6-21.3-21.3-21.3s-21.3,9.6-21.3,21.3v0h-21.3V94.9c0-35.3-28.6-63.9-63.9-63.9
			h-85.5c-35.3,0-63.9,28.6-63.9,63.9v21.4H127v0c0-11.8-9.6-21.3-21.3-21.3s-21.3,9.6-21.3,21.3v0H63c-35.4,0-64,28.7-64,64V415
			c0,35.4,28.7,64,64,64h384c35.4,0,64-28.7,64-64V180.4C511,145,482.3,116.3,447,116.3z M191,94.9c0-11.7,9.5-21.2,21.2-21.2h85.5
			c11.7,0,21.2,9.5,21.2,21.2v21.4H191V94.9z M383,159v277.3H127V159H383z M41.7,415V180.4c0-11.8,9.6-21.4,21.4-21.4h21.3v277.3H63
			C51.2,436.3,41.7,426.8,41.7,415z M468.3,415c0,11.8-9.6,21.4-21.4,21.4h-21.3V159H447c11.8,0,21.4,9.6,21.4,21.4V415z"/>
	</g>
</g>
</svg>
