<?xml version="1.0" encoding="utf-8"?>
<!-- Generator: Adobe Illustrator 22.1.0, SVG Export Plug-In . SVG Version: 6.00 Build 0)  -->
<svg version="1.1" id="Capa_1" xmlns="http://www.w3.org/2000/svg" xmlns:xlink="http://www.w3.org/1999/xlink" x="0px" y="0px"
	 viewBox="0 0 512 512" style="enable-background:new 0 0 512 512;" xml:space="preserve">
<style type="text/css">
	.st0{fill:#E04B1A;}
</style>
<g transform="translate(1)">
	<g>
		<g>
			<path class="st0" d="M504.8,240.9l-89.1-89.1c-88.7-88.7-232.6-88.7-321.3,0L5.2,240.9c-8.3,8.3-8.3,21.8,0,30.2l89.1,89.1
				c88.7,88.7,232.6,88.7,321.3,0l89.1-89.1C513.1,262.8,513.1,249.2,504.8,240.9z M385.5,330c-72.1,72.1-188.9,72.1-261,0l-74-74
				l74-74c72.1-72.1,188.9-72.1,261,0l74,74L385.5,330z"/>
			<path class="st0" d="M255,149.3c-58.9,0-106.7,47.8-106.7,106.7S196.1,362.7,255,362.7S361.7,314.9,361.7,256
				S313.9,149.3,255,149.3z M255,320c-35.3,0-64-28.7-64-64s28.7-64,64-64s64,28.7,64,64S290.3,320,255,320z"/>
		</g>
	</g>
</g>
</svg>
