<?xml version="1.0" encoding="utf-8"?>
<!-- Generator: Adobe Illustrator 22.1.0, SVG Export Plug-In . SVG Version: 6.00 Build 0)  -->
<svg version="1.1" id="Capa_1" xmlns="http://www.w3.org/2000/svg" xmlns:xlink="http://www.w3.org/1999/xlink" x="0px" y="0px"
	 viewBox="0 0 512 512" style="enable-background:new 0 0 512 512;" xml:space="preserve">
<style type="text/css">
	.st0{fill:#01BCD6;}
</style>
<g transform="translate(1 1)">
	<g>
		<g>
			<path class="st0" d="M442.2,134.9C442.2,134.9,442.2,134.9,442.2,134.9c-0.5-0.6-1-1.1-1.5-1.6l-128-128c-0.5-0.5-1-1-1.5-1.4
				c0,0-0.1-0.1-0.1-0.1c-4.4-3.6-9.5-5.1-14.5-4.8H84.3C72.6-1,63,8.6,63,20.4v469.3c0,11.8,9.6,21.3,21.3,21.3h341.3
				c11.8,0,21.3-9.6,21.3-21.3V149.5C447.3,144.5,445.8,139.3,442.2,134.9z M374.2,127H319V71.9L374.2,127z M105.7,468.4V41.7h170.7
				v106.7c0,11.8,9.6,21.3,21.3,21.3h106.7v298.7H105.7z"/>
			<path class="st0" d="M233.7,105.7h-78c-11.8,0-21.3,9.6-21.3,21.3s9.6,21.3,21.3,21.3h78c11.8,0,21.3-9.6,21.3-21.3
				C255,115.3,245.4,105.7,233.7,105.7z"/>
			<path class="st0" d="M155.7,233.7h56.6c11.8,0,21.3-9.6,21.3-21.3s-9.6-21.3-21.3-21.3h-56.6c-11.8,0-21.3,9.6-21.3,21.3
				C134.4,224.2,143.9,233.7,155.7,233.7z"/>
			<path class="st0" d="M297.7,233.7h42.7c11.8,0,21.3-9.6,21.3-21.3s-9.6-21.3-21.3-21.3h-42.7c-11.8,0-21.3,9.6-21.3,21.3
				C276.3,224.2,285.9,233.7,297.7,233.7z"/>
			<path class="st0" d="M150.5,319h61.8c11.8,0,21.3-9.6,21.3-21.3s-9.6-21.3-21.3-21.3h-61.8c-11.8,0-21.3,9.6-21.3,21.3
				C129.2,309.5,138.7,319,150.5,319z"/>
			<path class="st0" d="M203.4,365.8c-6.8-0.9-14.1-1.8-20.9-0.1c-3.6,0.9-7.1,2.6-10.4,4.3c-1.7,1-3.5,2-5.3,3c0-0.2,0-0.5-0.1-0.7
				c-13-24.2-49.8-2.7-36.8,21.5c10.4,19.4,33.4,27.5,53.5,18.4c1.8-0.8,10.7-4.2,9.7-4.9c1.5,0.1,3,0.3,4.4,0.4
				c2.3,0.2,4.5,0.7,6.8,1.2c2,0.4,3.9,0.9,5.8,1.5c0.2,0.1,0.4,0.2,0.6,0.2c16.9,13.2,45.8-6.2,31.9-26.9
				C233.9,370.6,218.1,367.6,203.4,365.8z"/>
			<path class="st0" d="M319,255c-35.4,0-64,28.6-64,64c0,19,8.2,36,21.3,47.7v43.7c0,13.5,16.3,20.3,25.9,10.7l16.8-16.8l16.8,16.8
				c9.5,9.5,25.9,2.8,25.9-10.7v-43.7C374.8,355,383,338,383,319C383,283.7,354.4,255,319,255z M319,297.7
				c11.8,0,21.3,9.5,21.3,21.3s-9.5,21.3-21.3,21.3s-21.3-9.5-21.3-21.3S307.2,297.7,319,297.7z"/>
		</g>
	</g>
</g>
</svg>
