<?xml version="1.0" encoding="utf-8"?>
<!-- Generator: Adobe Illustrator 22.1.0, SVG Export Plug-In . SVG Version: 6.00 Build 0)  -->
<svg version="1.1" id="Capa_1" xmlns="http://www.w3.org/2000/svg" xmlns:xlink="http://www.w3.org/1999/xlink" x="0px" y="0px"
	 viewBox="0 0 512 512" style="enable-background:new 0 0 512 512;" xml:space="preserve">
<g transform="translate(1 1)">
	<g>
		<g>
			<path d="M447,63H63C27.6,63-1,91.6-1,127v42.7v64V383c0,35.4,28.6,64,64,64h384c35.4,0,64-28.6,64-64V233.7v-64V127
				C511,91.6,482.4,63,447,63z M63,105.7h384c11.8,0,21.3,9.5,21.3,21.3v21.3H41.7V127C41.7,115.2,51.2,105.7,63,105.7z
				 M468.3,212.3H41.7V191h426.7L468.3,212.3L468.3,212.3z M447,404.3H63c-11.8,0-21.3-9.5-21.3-21.3V255h426.7v128
				C468.3,394.8,458.8,404.3,447,404.3z"/>
			<path d="M425.7,276.3h-128c-11.8,0-21.3,9.6-21.3,21.3s9.6,21.3,21.3,21.3h128c11.8,0,21.3-9.6,21.3-21.3
				C447,285.9,437.4,276.3,425.7,276.3z"/>
			<path d="M213.3,327.7c-11-0.6-38.2,16.8-43.9,6.7c-5.5-9.9-19.5-13.6-29.2-7.6c-11.5,7.1-28.4,20.6-40.8,7.2
				c-18.6-20.3-48.7,10-30.2,30.2c22.1,24.1,50.8,20.4,76.7,8.1c5.9,4.8,13,8.3,21.1,9.7c6.7,1.2,48.2-3,39.5-14.9
				c16,22,53.1,0.7,36.8-21.5C235.4,334.5,227.5,328.4,213.3,327.7z"/>
		</g>
	</g>
</g>
</svg>
