<?xml version="1.0" encoding="utf-8"?>
<!-- Generator: Adobe Illustrator 22.1.0, SVG Export Plug-In . SVG Version: 6.00 Build 0)  -->
<svg version="1.1" id="Capa_1" xmlns="http://www.w3.org/2000/svg" xmlns:xlink="http://www.w3.org/1999/xlink" x="0px" y="0px"
	 viewBox="0 0 512 512" style="enable-background:new 0 0 512 512;" xml:space="preserve">
<style type="text/css">
	.st0{fill:#FFFFFF;}
</style>
<g transform="translate(1 1)">
	<g>
		<g>
			<path class="st0" d="M255-1C113.6-1-1,113.6-1,255s114.6,256,256,256s256-114.6,256-256S396.4-1,255-1z M255,468.3
				c-117.8,0-213.3-95.5-213.3-213.3S137.2,41.7,255,41.7S468.3,137.2,468.3,255S372.8,468.3,255,468.3z"/>
			<path class="st0" d="M383,233.7H276.3V127c0-11.8-9.6-21.3-21.3-21.3s-21.3,9.6-21.3,21.3v106.7H127c-11.8,0-21.3,9.6-21.3,21.3
				s9.6,21.3,21.3,21.3h106.6V383c0,11.8,9.6,21.3,21.3,21.3c11.8,0,21.3-9.6,21.3-21.3V276.3H383c11.8,0,21.3-9.6,21.3-21.3
				S394.8,233.7,383,233.7z"/>
		</g>
	</g>
</g>
</svg>
