<?xml version="1.0" encoding="utf-8"?>
<!-- Generator: Adobe Illustrator 22.1.0, SVG Export Plug-In . SVG Version: 6.00 Build 0)  -->
<svg version="1.1" id="Capa_1" xmlns="http://www.w3.org/2000/svg" xmlns:xlink="http://www.w3.org/1999/xlink" x="0px" y="0px"
	 viewBox="0 0 511.6 511.6" style="enable-background:new 0 0 511.6 511.6;" xml:space="preserve">
<g>
	<path d="M503.6,117.6c-5.3-5.3-11.8-8-19.4-8H365.4c-11.4,0-23.6,3.8-36.5,11.4V27.4c0-7.6-2.7-14.1-8-19.4c-5.3-5.3-11.8-8-19.4-8
		H182.7c-7.6,0-16,1.9-25.1,5.7c-9.1,3.8-16.4,8.4-21.7,13.7L19.4,135.9c-5.3,5.3-9.9,12.6-13.7,21.7C1.9,166.7,0,175.1,0,182.7
		v191.9c0,7.6,2.7,14.1,8,19.4c5.3,5.3,11.8,8,19.4,8h155.3v82.2c0,7.6,2.7,14.1,8,19.4c5.3,5.3,11.8,8,19.4,8h274.1
		c7.6,0,14.1-2.7,19.4-8c5.3-5.3,8-11.8,8-19.4V137C511.6,129.4,509,123,503.6,117.6z M328.9,170.4v85.4h-85.4L328.9,170.4z
		 M146.2,60.8v85.4H60.8L146.2,60.8z M202.1,245.5c-5.3,5.3-9.9,12.6-13.7,21.7c-3.8,9.1-5.7,17.5-5.7,25.1v73.1H36.5V182.7h118.8
		c7.6,0,14.1-2.7,19.4-8c5.3-5.3,8-11.8,8-19.4V36.5h109.6v118.8L202.1,245.5z M475.1,475.1H219.3V292.4H338c7.6,0,14.1-2.7,19.4-8
		c5.3-5.3,8-11.8,8-19.4V146.2h109.6L475.1,475.1L475.1,475.1L475.1,475.1z"/>
</g>
</svg>
