<?xml version="1.0" encoding="utf-8"?>
<!-- Generator: Adobe Illustrator 22.1.0, SVG Export Plug-In . SVG Version: 6.00 Build 0)  -->
<svg version="1.1" id="Capa_1" xmlns="http://www.w3.org/2000/svg" xmlns:xlink="http://www.w3.org/1999/xlink" x="0px" y="0px"
	 viewBox="0 0 512 512" style="enable-background:new 0 0 512 512;" xml:space="preserve">
<style type="text/css">
	.st0{fill:#FFFFFF;}
</style>
<g transform="translate(1 1)">
	<g>
		<path class="st0" d="M511,95c0-11.8-9.6-21.3-21.3-21.3H204.2l-15.4-30.9c-3.6-7.2-11-11.8-19.1-11.8H20.3C8.6,31-1,40.6-1,52.3
			v405.3c0,11.8,9.6,21.3,21.3,21.3h469.3c11.8,0,21.3-9.6,21.3-21.3V180.4c0,0,0,0,0,0L511,95L511,95z M468.3,116.3V159H246.9
			l-21.3-42.7C225.5,116.3,468.3,116.3,468.3,116.3z M468.3,436.3H41.7V73.7h114.8l58.1,116.2c3.6,7.2,11,11.8,19.1,11.8h0h234.7
			L468.3,436.3L468.3,436.3z"/>
	</g>
</g>
</svg>
