<?xml version="1.0" encoding="iso-8859-1"?>
<!-- Generator: Adobe Illustrator 19.0.0, SVG Export Plug-In . SVG Version: 6.00 Build 0)  -->
<svg version="1.1" id="Capa_1" xmlns="http://www.w3.org/2000/svg" xmlns:xlink="http://www.w3.org/1999/xlink" x="0px" y="0px"
	 viewBox="0 0 512.009 512.009" style="enable-background:new 0 0 512.009 512.009;" xml:space="preserve">
<g transform="translate(1 1)">
	<g>
		<path d="M489.671,180.338h-21.333V73.671c0-11.782-9.551-21.333-21.333-21.333H225.457l-15.414-30.489
			c-3.618-7.156-10.942-11.679-18.96-11.708l-128-0.469C51.27,9.628,41.671,19.192,41.671,31.005v149.333H20.338
			c-13.075,0-23.073,11.654-21.085,24.577l42.667,277.333c1.601,10.407,10.556,18.089,21.085,18.089h384
			c10.53,0,19.484-7.682,21.085-18.089l42.667-277.333C512.745,191.992,502.746,180.338,489.671,180.338z M177.861,52.759
			l15.438,30.537c3.63,7.181,10.992,11.708,19.039,11.708h213.333v21.333H84.338V52.416L177.861,52.759z M84.338,159.005h341.333
			v21.333H84.338V159.005z M428.702,457.671H81.307L45.204,223.005h17.8h384h17.8L428.702,457.671z"/>
	</g>
</g>
<g>
</g>
<g>
</g>
<g>
</g>
<g>
</g>
<g>
</g>
<g>
</g>
<g>
</g>
<g>
</g>
<g>
</g>
<g>
</g>
<g>
</g>
<g>
</g>
<g>
</g>
<g>
</g>
<g>
</g>
</svg>
