<?xml version="1.0" encoding="iso-8859-1"?>
<!-- Generator: Adobe Illustrator 19.0.0, SVG Export Plug-In . SVG Version: 6.00 Build 0)  -->
<svg version="1.1" id="Capa_1" xmlns="http://www.w3.org/2000/svg" xmlns:xlink="http://www.w3.org/1999/xlink" x="0px" y="0px"
	 viewBox="0 0 512.021 512.021" style="enable-background:new 0 0 512.021 512.021;" xml:space="preserve">
<g transform="translate(1 1)">
	<g>
		<path d="M510.03,163.082c-3.236-20.413-14.6-36.166-36.563-36.071c-20.823,0.078-44.409,8.147-62.722,20.54
			c-9.611,6.489-18.914,14.208-27.745,23.198v-43.738c0-35.355-28.645-64-64-64c-7.483,0-14.66,1.296-21.333,3.654v-3.654
			c0-35.355-28.645-64-64-64c-29.528,0-54.361,19.987-61.749,47.17c-7.3-2.895-15.251-4.503-23.584-4.503c-35.355,0-64,28.645-64,64
			v24.987c-6.674-2.358-13.85-3.654-21.333-3.654c-35.355,0-64,28.645-64,64v145.451c8.912,129.445,83.572,174.549,221.675,174.549
			c75.568,0,123.163-31.004,159.617-96.263c5.237-8.421,18.1-33.432,37.983-73.365c0.616-1.237,0.616-1.237,1.232-2.475
			c6.594-13.255,36.034-72.906,37.88-76.41c8.331-15.801,17.859-28.934,27.605-36.898c9.188-7.522,15.283-16.049,22.425-29.215
			C511.176,189.468,511.9,174.877,510.03,163.082z M468.276,178.297c-3.912,7.566-6.885,11.481-10.299,14.276
			c-14.95,12.218-27.573,29.616-38.338,50.035c-2.155,4.093-32.117,64.802-38.333,77.296c-0.613,1.231-0.613,1.231-1.225,2.462
			c-18.978,38.115-31.875,63.191-36.554,70.753c-29.738,53.192-63.563,75.226-122.851,75.226
			c-118.389,0-172.07-32.431-179.059-133.356l0.051-143.977c0-11.791,9.542-21.333,21.333-21.333s21.333,9.542,21.333,21.333v85.333
			c0,11.782,9.551,21.333,21.333,21.333c11.782,0,21.333-9.551,21.333-21.333v-85.333v-85.333c0-11.791,9.542-21.333,21.333-21.333
			s21.333,9.542,21.333,21.333v149.333v21.333c0,11.782,9.551,21.333,21.333,21.333c11.782,0,21.333-9.551,21.333-21.333v-21.333
			V105.677V63.011c0-11.791,9.542-21.333,21.333-21.333S255,51.219,255,63.011v170.667c0,11.782,9.551,21.333,21.333,21.333
			c11.782,0,21.333-9.551,21.333-21.333V127.011c0-11.791,9.542-21.333,21.333-21.333s21.333,9.542,21.333,21.333v106.667
			c0,0.005,0.001,0.009,0.001,0.013c0.001,4.106,1.181,8.216,3.573,11.8c0.034,0.051,0.065,0.104,0.1,0.155
			c0.323,0.475,0.674,0.936,1.04,1.39c0.082,0.102,0.161,0.206,0.244,0.306c0.127,0.152,0.237,0.313,0.369,0.462
			c0.233,0.263,0.486,0.496,0.729,0.745c0.108,0.111,0.214,0.224,0.325,0.332c0.389,0.382,0.789,0.744,1.2,1.09
			c0.113,0.095,0.225,0.191,0.34,0.284c0.421,0.341,0.851,0.662,1.292,0.966c0.129,0.089,0.259,0.178,0.39,0.264
			c0.434,0.286,0.875,0.554,1.326,0.805c0.166,0.093,0.333,0.183,0.501,0.271c0.425,0.222,0.854,0.43,1.29,0.621
			c0.218,0.096,0.438,0.188,0.66,0.278c0.401,0.16,0.805,0.309,1.213,0.444c0.268,0.089,0.538,0.173,0.811,0.252
			c0.382,0.11,0.765,0.208,1.152,0.296c0.3,0.069,0.602,0.133,0.907,0.189c0.382,0.07,0.764,0.126,1.149,0.175
			c0.31,0.04,0.62,0.076,0.933,0.102c0.396,0.033,0.793,0.049,1.19,0.06c0.201,0.006,0.397,0.03,0.599,0.03
			c0.115,0,0.226-0.015,0.34-0.017c0.379-0.006,0.756-0.031,1.134-0.057c0.341-0.023,0.683-0.044,1.019-0.083
			c0.316-0.037,0.629-0.093,0.943-0.144c0.391-0.063,0.782-0.125,1.165-0.209c0.247-0.055,0.491-0.126,0.737-0.19
			c0.438-0.113,0.875-0.227,1.302-0.367c0.193-0.063,0.382-0.141,0.574-0.21c0.471-0.169,0.938-0.344,1.392-0.545
			c0.154-0.068,0.303-0.147,0.455-0.219c0.488-0.23,0.97-0.469,1.436-0.733c0.121-0.069,0.238-0.146,0.359-0.218
			c0.496-0.294,0.981-0.602,1.45-0.934c0.095-0.067,0.186-0.14,0.28-0.209c0.49-0.359,0.965-0.736,1.423-1.135
			c0.031-0.027,0.065-0.049,0.096-0.076c4.502-3.978,8.332-8.593,11.276-13.71c13.726-23.995,30.168-41.291,47.59-53.054
			c9.858-6.671,22.459-11.489,33.297-12.839C468.307,172.57,468.414,175.518,468.276,178.297z"/>
	</g>
</g>
<g>
</g>
<g>
</g>
<g>
</g>
<g>
</g>
<g>
</g>
<g>
</g>
<g>
</g>
<g>
</g>
<g>
</g>
<g>
</g>
<g>
</g>
<g>
</g>
<g>
</g>
<g>
</g>
<g>
</g>
</svg>
