<?xml version="1.0" encoding="iso-8859-1"?>
<!-- Generator: Adobe Illustrator 19.0.0, SVG Export Plug-In . SVG Version: 6.00 Build 0)  -->
<svg version="1.1" id="Capa_1" xmlns="http://www.w3.org/2000/svg" xmlns:xlink="http://www.w3.org/1999/xlink" x="0px" y="0px"
	 viewBox="0 0 512.001 512.001" style="enable-background:new 0 0 512.001 512.001;" xml:space="preserve">
<g>
	<g>
		<path d="M499.919,178.421L262.34,91.247c-4.095-1.504-8.589-1.504-12.683,0l-237.58,87.174
			c-7.189,2.64-11.996,9.442-12.075,17.103c-0.08,7.655,4.592,14.562,11.726,17.343l237.58,92.699
			c2.149,0.841,4.42,1.258,6.692,1.258s4.543-0.417,6.692-1.258l237.586-92.699c7.127-2.781,11.799-9.687,11.719-17.343
			C511.915,187.869,507.108,181.061,499.919,178.421z M255.998,268.64L70.44,196.243l185.558-68.088l185.558,68.088L255.998,268.64z
			"/>
	</g>
</g>
<g>
	<g>
		<path d="M397.809,236.226v125.162c-92.134,31.548-192.102,31.548-284.236,0V236.22H76.739v138.128
			c0,7.68,4.764,14.556,11.953,17.244c53.845,20.191,110.422,30.29,167,30.29s113.154-10.093,167.006-30.284
			c7.189-2.695,11.946-9.565,11.946-17.245V236.226H397.809z"/>
	</g>
</g>
<g>
	<g>
		<path d="M493.584,179.139c-10.172,0-18.417,8.245-18.417,18.417v160.842c0,10.172,8.245,18.417,18.417,18.417
			c10.172,0,18.417-8.245,18.417-18.417V197.556C512.001,187.384,503.756,179.139,493.584,179.139z"/>
	</g>
</g>
<g>
</g>
<g>
</g>
<g>
</g>
<g>
</g>
<g>
</g>
<g>
</g>
<g>
</g>
<g>
</g>
<g>
</g>
<g>
</g>
<g>
</g>
<g>
</g>
<g>
</g>
<g>
</g>
<g>
</g>
</svg>
