<?xml version="1.0" encoding="utf-8"?>
<!-- Generator: Adobe Illustrator 22.1.0, SVG Export Plug-In . SVG Version: 6.00 Build 0)  -->
<svg version="1.1" id="Capa_1" xmlns="http://www.w3.org/2000/svg" xmlns:xlink="http://www.w3.org/1999/xlink" x="0px" y="0px"
	 viewBox="0 0 512 512" style="enable-background:new 0 0 512 512;" xml:space="preserve">
<style type="text/css">
	.st0{fill:#E04B1A;}
</style>
<g transform="translate(1 1)">
	<g>
		<g>
			<path class="st0" d="M255,383c-11.8,0-21.3,9.6-21.3,21.3s9.6,21.3,21.3,21.3s21.3-9.6,21.3-21.3S266.8,383,255,383z"/>
			<path class="st0" d="M436,74C336-26,173.9-26,74,74C-26,174-26,336.1,74,436c100,100,262,100,362,0C536,336.1,536,174,436,74z
				 M405.8,405.8c-83.3,83.3-218.4,83.3-301.7,0c-83.3-83.3-83.3-218.4,0-301.7c83.3-83.3,218.4-83.3,301.7,0
				S489.2,322.5,405.8,405.8z"/>
			<path class="st0" d="M270.3,85.7c-53-9.3-100.6,31.1-100.6,84c0,11.8,9.6,21.3,21.3,21.3s21.3-9.6,21.3-21.3
				c0-26.5,23.8-46.7,50.6-42c16.9,3,31.1,17.2,34,34.1c3.3,18.8-5.5,36.5-21.4,45.3c-26.4,14.5-41.9,43.6-41.9,74.7V319
				c0,11.8,9.6,21.3,21.3,21.3c11.8,0,21.3-9.6,21.3-21.3v-37.2c0-16.2,7.7-30.7,19.8-37.4c31.7-17.5,49.3-53.1,42.8-90.1
				C332.9,119.8,304.9,91.8,270.3,85.7z"/>
		</g>
	</g>
</g>
</svg>
