<?xml version="1.0" encoding="iso-8859-1"?>
<!-- Generator: Adobe Illustrator 19.0.0, SVG Export Plug-In . SVG Version: 6.00 Build 0)  -->
<svg version="1.1" id="Capa_1" xmlns="http://www.w3.org/2000/svg" xmlns:xlink="http://www.w3.org/1999/xlink" x="0px" y="0px"
	 viewBox="0 0 512 512" style="enable-background:new 0 0 512 512;" xml:space="preserve">
<g transform="translate(1 1)">
	<g>
		<g>
			<path d="M127,233.667c35.355,0,64-28.645,64-64s-28.645-64-64-64s-64,28.645-64,64S91.645,233.667,127,233.667z M127,148.333
				c11.791,0,21.333,9.542,21.333,21.333S138.791,191,127,191s-21.333-9.542-21.333-21.333S115.209,148.333,127,148.333z"/>
			<path d="M489.667,41.667H20.333C8.551,41.667-1,51.218-1,63v384c0,11.782,9.551,21.333,21.333,21.333h469.333
				c11.782,0,21.333-9.551,21.333-21.333V63C511,51.218,501.449,41.667,489.667,41.667z M468.333,425.667H41.667V84.333h426.667
				V425.667z"/>
			<path d="M90.582,376.752c8.331,8.331,21.839,8.331,30.17,0l91.582-91.582l48.915,48.915c8.331,8.331,21.839,8.331,30.17,0
				s8.331-21.839,0-30.17l-9.555-9.555l41.373-68.954l66.013,66.013c8.331,8.331,21.839,8.331,30.17,0
				c8.331-8.331,8.331-21.839,0-30.17l-85.333-85.333c-9.814-9.814-26.238-7.792-33.378,4.109l-49.942,83.237l-23.346-23.346
				c-8.331-8.331-21.839-8.331-30.17,0L90.582,346.582C82.251,354.913,82.251,368.42,90.582,376.752z"/>
		</g>
	</g>
</g>
<g>
</g>
<g>
</g>
<g>
</g>
<g>
</g>
<g>
</g>
<g>
</g>
<g>
</g>
<g>
</g>
<g>
</g>
<g>
</g>
<g>
</g>
<g>
</g>
<g>
</g>
<g>
</g>
<g>
</g>
</svg>
