<?xml version="1.0" encoding="iso-8859-1"?>
<!-- Generator: Adobe Illustrator 19.0.0, SVG Export Plug-In . SVG Version: 6.00 Build 0)  -->
<svg version="1.1" id="Capa_1" xmlns="http://www.w3.org/2000/svg" xmlns:xlink="http://www.w3.org/1999/xlink" x="0px" y="0px"
	 viewBox="0 0 512 512" style="enable-background:new 0 0 512 512;" xml:space="preserve">
<g transform="translate(1 1)">
	<g>
		<path d="M425.667,361.667c-9.882,0-19.238,2.241-27.592,6.238l-54.086-54.086c11.169-16.863,17.679-37.079,17.679-58.818
			s-6.51-41.956-17.679-58.818l38.343-38.343c12.703,7.505,27.511,11.828,43.336,11.828c47.131,0,85.333-38.202,85.333-85.333
			S472.798-1,425.667-1s-85.333,38.202-85.333,85.333c0,15.825,4.323,30.632,11.828,43.336l-38.343,38.343
			c-16.863-11.169-37.079-17.679-58.818-17.679s-41.956,6.51-58.818,17.679l-75.42-75.42C124.759,82.238,127,72.882,127,63
			c0-35.355-28.645-64-64-64S-1,27.645-1,63s28.645,64,64,64c9.882,0,19.238-2.241,27.592-6.238l75.42,75.42
			c-11.169,16.862-17.679,37.079-17.679,58.818s6.51,41.956,17.679,58.818l-38.343,38.343
			c-12.703-7.505-27.511-11.828-43.336-11.828C37.202,340.333-1,378.535-1,425.667S37.202,511,84.333,511
			s85.333-38.202,85.333-85.333c0-15.825-4.323-30.632-11.828-43.336l38.343-38.343c16.863,11.169,37.079,17.679,58.818,17.679
			s41.956-6.51,58.818-17.679l54.086,54.086c-3.997,8.354-6.238,17.71-6.238,27.592c0,35.355,28.645,64,64,64s64-28.645,64-64
			S461.022,361.667,425.667,361.667z M425.667,41.667c23.567,0,42.667,19.099,42.667,42.667S449.234,127,425.667,127
			c-11.597,0-22.106-4.632-29.796-12.138c-0.12-0.126-0.224-0.261-0.348-0.385s-0.259-0.228-0.385-0.348
			C387.632,106.44,383,95.931,383,84.333C383,60.766,402.099,41.667,425.667,41.667z M41.667,63
			c0-11.791,9.542-21.333,21.333-21.333S84.333,51.209,84.333,63c0,5.876-2.372,11.192-6.209,15.049
			c-0.013,0.013-0.027,0.023-0.04,0.036s-0.023,0.027-0.036,0.04c-3.856,3.837-9.172,6.209-15.049,6.209
			C51.209,84.333,41.667,74.791,41.667,63z M84.333,468.333c-23.567,0-42.667-19.099-42.667-42.667S60.766,383,84.333,383
			c11.553,0,22.026,4.598,29.708,12.054c0.147,0.156,0.277,0.322,0.429,0.475s0.319,0.282,0.475,0.429
			c7.456,7.682,12.054,18.155,12.054,29.708C127,449.234,107.901,468.333,84.333,468.333z M209.798,300.303
			c-0.017-0.017-0.031-0.036-0.048-0.053s-0.036-0.031-0.053-0.048C198.145,288.624,191,272.646,191,255c0-35.343,28.657-64,64-64
			c17.602,0,33.543,7.111,45.114,18.613c0.046,0.046,0.083,0.097,0.129,0.143s0.097,0.084,0.143,0.129
			C311.889,221.457,319,237.398,319,255c0,17.588-7.1,33.516-18.585,45.085c-0.056,0.055-0.118,0.101-0.173,0.157
			s-0.102,0.117-0.157,0.173C288.516,311.9,272.588,319,255,319C237.354,319,221.376,311.855,209.798,300.303z M425.667,447
			c-11.791,0-21.333-9.542-21.333-21.333c0-5.876,2.372-11.192,6.209-15.049c0.013-0.013,0.027-0.023,0.04-0.036
			s0.023-0.027,0.036-0.04c3.856-3.837,9.172-6.209,15.049-6.209c11.791,0,21.333,9.542,21.333,21.333S437.458,447,425.667,447z"/>
	</g>
</g>
<g>
</g>
<g>
</g>
<g>
</g>
<g>
</g>
<g>
</g>
<g>
</g>
<g>
</g>
<g>
</g>
<g>
</g>
<g>
</g>
<g>
</g>
<g>
</g>
<g>
</g>
<g>
</g>
<g>
</g>
</svg>
