<?xml version="1.0" encoding="utf-8"?>
<!-- Generator: Adobe Illustrator 22.1.0, SVG Export Plug-In . SVG Version: 6.00 Build 0)  -->
<svg version="1.1" id="Capa_1" xmlns="http://www.w3.org/2000/svg" xmlns:xlink="http://www.w3.org/1999/xlink" x="0px" y="0px"
	 viewBox="0 0 512 512" style="enable-background:new 0 0 512 512;" xml:space="preserve">
<style type="text/css">
	.st0{fill:#01BCD6;}
</style>
<g transform="translate(1 1)">
	<g>
		<g>
			<path class="st0" d="M221,2.3C152.5,15.6,98.1,71.8,86.7,140.8c-6.8,41.2,1.1,81.9,21.7,116.3c2.3,3.9,4.2,7,8.4,14l1,1.6
				c41.8,69.6,60,101.9,79.1,142.8l38.8,83.2c7.7,16.4,31,16.4,38.7,0l35-74.9c19.3-41.4,37.6-74.1,79.2-144.6l1.1-1.8
				c6.2-10.5,9.1-15.5,12.7-21.5c15.3-25.9,23.4-55.5,23.4-86.3C425.7,62.5,328.4-18.5,221,2.3z M365.4,234.3
				c-3.5,6-6.5,11-12.6,21.4l-1.1,1.8c-42.3,71.6-61.1,105.2-81.1,148.2L255,439.2l-19.5-41.8c-19.9-42.7-38.6-75.8-81.1-146.7
				l-1-1.6c-4.2-7-6-10.1-8.4-14c-15.4-25.8-21.4-56.2-16.2-87.4c8.5-51.4,49.4-93.6,100.3-103.5C310.1,28.5,383,89.3,383,169.7
				C383,192.7,376.9,214.9,365.4,234.3z"/>
			<path class="st0" d="M255,105.7c-35.4,0-64,28.6-64,64s28.6,64,64,64s64-28.6,64-64S290.3,105.7,255,105.7z M255,191
				c-11.8,0-21.3-9.5-21.3-21.3s9.5-21.3,21.3-21.3c11.8,0,21.3,9.5,21.3,21.3S266.8,191,255,191z"/>
		</g>
	</g>
</g>
</svg>
