<?xml version="1.0" encoding="utf-8"?>
<!-- Generator: Adobe Illustrator 22.1.0, SVG Export Plug-In . SVG Version: 6.00 Build 0)  -->
<svg version="1.1" id="Capa_1" xmlns="http://www.w3.org/2000/svg" xmlns:xlink="http://www.w3.org/1999/xlink" x="0px" y="0px"
	 viewBox="0 0 512 512" style="enable-background:new 0 0 512 512;" xml:space="preserve">
<g transform="translate(1 1)">
	<g>
		<path d="M489.3,185.5c-8.4-8.3-21.9-8.3-30.2,0.1L202.7,443.4c-33.3,33.3-87.3,33.3-120.6,0C48.7,410,48.7,356,82,322.7L346,57.3
			c20.8-20.8,54.5-20.8,75.4,0c20.8,20.8,20.8,54.6,0,75.4L202.7,351.4l0,0c-8.3,8.3-21.8,8.3-30.1,0s-8.3-21.8,0-30.2l105.6-105.6
			c8.3-8.3,8.3-21.8,0-30.2s-21.8-8.3-30.2,0L142.4,291.1c-25,25-25,65.5,0,90.5s65.5,25,90.5,0l0.1-0.1l218.6-218.6
			c37.5-37.5,37.5-98.3,0-135.8s-98.3-37.5-135.7,0l-264,265.4c-49.9,49.9-49.9,131,0,181c50,50,131,50,181,0l256.5-257.9
			C497.7,207.3,497.7,193.8,489.3,185.5z"/>
	</g>
</g>
</svg>
