<?xml version="1.0" encoding="iso-8859-1"?>
<!-- Generator: Adobe Illustrator 19.0.0, SVG Export Plug-In . SVG Version: 6.00 Build 0)  -->
<svg version="1.1" id="Capa_1" xmlns="http://www.w3.org/2000/svg" xmlns:xlink="http://www.w3.org/1999/xlink" x="0px" y="0px"
	 viewBox="0 0 512 512" style="enable-background:new 0 0 512 512;" xml:space="preserve">
<g transform="translate(1 1)">
	<g>
		<g>
			<path d="M127,63c-35.355,0-64,28.645-64,64s28.645,64,64,64s64-28.645,64-64S162.355,63,127,63z M127,148.333
				c-11.791,0-21.333-9.542-21.333-21.333s9.542-21.333,21.333-21.333s21.333,9.542,21.333,21.333S138.791,148.333,127,148.333z"/>
			<path d="M127,276.333c-35.355,0-64,28.645-64,64s28.645,64,64,64s64-28.645,64-64S162.355,276.333,127,276.333z M127,361.667
				c-11.791,0-21.333-9.542-21.333-21.333c0-11.791,9.542-21.333,21.333-21.333s21.333,9.542,21.333,21.333
				C148.333,352.125,138.791,361.667,127,361.667z"/>
			<path d="M255,105.667h128c11.782,0,21.333-9.551,21.333-21.333C404.333,72.551,394.782,63,383,63H255
				c-11.782,0-21.333,9.551-21.333,21.333C233.667,96.115,243.218,105.667,255,105.667z"/>
			<path d="M511,84.333C511,37.202,472.798-1,425.667-1H84.333C37.202-1-1,37.202-1,84.333v85.333c0,25.496,11.193,48.364,28.918,64
				C10.193,249.303-1,272.17-1,297.667V383c0,47.131,38.202,85.333,85.333,85.333h146.534c25.69,26.594,75.28,42.667,130.8,42.667
				C442.636,511,511,476.818,511,425.667v-85.333V255c0-14.132-5.226-26.964-14.486-38.143C505.8,203.114,511,186.834,511,169.667
				V84.333z M41.667,169.667V84.333c0-23.567,19.099-42.667,42.667-42.667h341.333c23.567,0,42.667,19.099,42.667,42.667v85.333
				c0,7.615-2.074,14.885-5.873,21.26c-25.122-12.714-57.978-20.278-93.661-21.169c-0.043-0.001-0.087-0.001-0.13-0.003
				c-2.323-0.057-4.657-0.089-7.003-0.089c-1.562,0-3.118,0.017-4.671,0.042c-0.373,0.006-0.746,0.015-1.118,0.022
				c-1.361,0.028-2.718,0.064-4.071,0.111c-0.18,0.006-0.36,0.011-0.54,0.018c-51.263,1.874-96.326,17.552-120.401,42.473H84.333
				C60.766,212.333,41.667,193.234,41.667,169.667z M84.333,425.667c-23.567,0-42.667-19.099-42.667-42.667v-85.333
				c0-23.567,19.099-42.667,42.667-42.667h128v85.333v85.333H84.333z M468.333,425.667c0,19.547-46.238,42.667-106.667,42.667
				c-48.404,0-87.697-14.834-101.421-30.784c-0.493-0.983-1.065-1.95-1.733-2.892c-2.462-3.472-3.513-6.42-3.513-8.992v-24.398
				c0.263,0.149,0.534,0.294,0.799,0.442c0.441,0.246,0.882,0.491,1.328,0.734c0.418,0.227,0.84,0.452,1.263,0.676
				c0.45,0.239,0.901,0.477,1.357,0.713c0.427,0.221,0.858,0.439,1.29,0.657c0.461,0.232,0.922,0.464,1.388,0.693
				c0.437,0.215,0.878,0.427,1.319,0.639c0.47,0.225,0.941,0.449,1.416,0.671c0.447,0.209,0.897,0.415,1.348,0.621
				c0.479,0.218,0.96,0.435,1.444,0.65c0.456,0.203,0.915,0.403,1.376,0.602c0.488,0.211,0.977,0.421,1.47,0.628
				c0.466,0.196,0.934,0.391,1.403,0.584c0.498,0.205,0.998,0.408,1.501,0.609c0.472,0.189,0.945,0.376,1.421,0.561
				c0.509,0.198,1.02,0.395,1.534,0.59c0.481,0.182,0.963,0.363,1.447,0.542c0.515,0.19,1.033,0.379,1.552,0.565
				c0.491,0.176,0.983,0.351,1.477,0.524c0.524,0.183,1.05,0.364,1.579,0.544c0.498,0.169,0.997,0.337,1.499,0.503
				c0.531,0.176,1.064,0.349,1.6,0.521c0.508,0.163,1.017,0.326,1.529,0.485c0.539,0.168,1.08,0.334,1.623,0.498
				c0.514,0.156,1.029,0.311,1.546,0.463c0.547,0.161,1.098,0.319,1.649,0.477c0.521,0.149,1.043,0.297,1.568,0.443
				c0.555,0.154,1.114,0.305,1.673,0.455c0.527,0.142,1.055,0.283,1.586,0.421c0.566,0.147,1.135,0.291,1.704,0.434
				c0.531,0.134,1.061,0.267,1.595,0.397c0.576,0.14,1.156,0.277,1.736,0.414c0.535,0.126,1.07,0.252,1.608,0.375
				c0.582,0.132,1.167,0.261,1.752,0.389c0.545,0.12,1.09,0.24,1.638,0.356c0.585,0.124,1.174,0.244,1.763,0.364
				c0.552,0.112,1.103,0.226,1.658,0.335c0.594,0.117,1.191,0.229,1.789,0.341c0.557,0.105,1.113,0.211,1.672,0.312
				c0.601,0.109,1.205,0.213,1.809,0.318c0.561,0.097,1.122,0.196,1.686,0.289c0.608,0.101,1.219,0.197,1.83,0.294
				c0.567,0.09,1.133,0.181,1.703,0.268c0.615,0.093,1.234,0.181,1.853,0.27c0.569,0.082,1.137,0.166,1.708,0.244
				c0.626,0.086,1.256,0.166,1.885,0.247c0.57,0.074,1.139,0.15,1.711,0.22c0.635,0.078,1.273,0.15,1.91,0.223
				c0.572,0.066,1.142,0.134,1.716,0.196c0.644,0.07,1.293,0.134,1.94,0.199c0.572,0.058,1.142,0.118,1.716,0.173
				c0.655,0.062,1.314,0.118,1.972,0.175c0.57,0.05,1.139,0.102,1.711,0.149c0.67,0.054,1.344,0.101,2.016,0.151
				c0.564,0.042,1.127,0.086,1.693,0.124c0.693,0.047,1.39,0.086,2.085,0.127c0.55,0.033,1.097,0.069,1.648,0.099
				c0.708,0.038,1.42,0.068,2.13,0.101c0.545,0.025,1.089,0.054,1.636,0.076c0.754,0.03,1.511,0.052,2.267,0.077
				c0.503,0.016,1.005,0.036,1.509,0.05c0.864,0.023,1.732,0.037,2.599,0.053c0.403,0.007,0.803,0.019,1.206,0.024
				c1.272,0.017,2.547,0.026,3.826,0.026s2.554-0.009,3.826-0.026c0.403-0.005,0.804-0.017,1.206-0.024
				c0.867-0.015,1.735-0.029,2.599-0.053c0.504-0.013,1.006-0.034,1.509-0.05c0.756-0.024,1.514-0.046,2.267-0.077
				c0.547-0.022,1.09-0.051,1.636-0.076c0.711-0.033,1.422-0.063,2.13-0.101c0.551-0.03,1.099-0.066,1.648-0.099
				c0.695-0.041,1.392-0.081,2.085-0.127c0.566-0.038,1.129-0.083,1.693-0.124c0.673-0.049,1.346-0.097,2.016-0.151
				c0.572-0.046,1.141-0.099,1.711-0.149c0.658-0.057,1.317-0.113,1.972-0.175c0.574-0.054,1.144-0.115,1.716-0.173
				c0.647-0.066,1.295-0.129,1.94-0.199c0.574-0.062,1.144-0.131,1.716-0.196c0.637-0.074,1.276-0.145,1.91-0.223
				c0.572-0.07,1.141-0.146,1.711-0.22c0.629-0.081,1.259-0.162,1.885-0.247c0.571-0.078,1.139-0.162,1.708-0.244
				c0.618-0.089,1.237-0.177,1.853-0.27c0.57-0.086,1.136-0.178,1.703-0.268c0.611-0.097,1.222-0.193,1.83-0.294
				c0.564-0.094,1.124-0.192,1.686-0.289c0.604-0.105,1.208-0.209,1.809-0.318c0.56-0.101,1.116-0.207,1.672-0.312
				c0.597-0.113,1.195-0.224,1.789-0.341c0.555-0.109,1.106-0.222,1.658-0.335c0.589-0.12,1.178-0.24,1.763-0.364
				c0.549-0.116,1.095-0.237,1.641-0.356c0.583-0.128,1.167-0.256,1.747-0.388c0.54-0.123,1.076-0.249,1.613-0.376
				c0.579-0.136,1.158-0.273,1.733-0.413c0.535-0.13,1.066-0.264,1.597-0.398c0.569-0.143,1.137-0.286,1.701-0.433
				c0.531-0.138,1.06-0.28,1.588-0.422c0.559-0.15,1.117-0.301,1.672-0.454c0.525-0.145,1.047-0.294,1.568-0.443
				c0.551-0.157,1.102-0.316,1.649-0.477c0.518-0.152,1.032-0.308,1.546-0.463c0.543-0.165,1.084-0.33,1.623-0.498
				c0.512-0.16,1.021-0.322,1.529-0.485c0.535-0.172,1.069-0.345,1.6-0.521c0.502-0.166,1.001-0.334,1.499-0.503
				c0.528-0.18,1.055-0.36,1.579-0.544c0.495-0.173,0.987-0.348,1.477-0.524c0.519-0.187,1.037-0.375,1.552-0.565
				c0.485-0.179,0.968-0.36,1.45-0.543c0.512-0.194,1.022-0.39,1.53-0.588c0.477-0.186,0.952-0.374,1.426-0.563
				c0.501-0.201,1-0.403,1.497-0.607c0.471-0.193,0.939-0.388,1.406-0.585c0.492-0.207,0.982-0.417,1.469-0.628
				c0.461-0.199,0.919-0.4,1.376-0.602c0.484-0.215,0.964-0.432,1.443-0.65c0.452-0.206,0.903-0.413,1.351-0.622
				c0.473-0.221,0.943-0.445,1.411-0.669c0.443-0.213,0.885-0.426,1.324-0.641c0.464-0.228,0.924-0.459,1.383-0.69
				c0.434-0.219,0.866-0.438,1.295-0.66c0.454-0.235,0.903-0.472,1.352-0.71c0.424-0.225,0.848-0.451,1.268-0.679
				c0.444-0.242,0.883-0.486,1.322-0.731c0.266-0.149,0.538-0.294,0.803-0.444V425.667z M361.667,383
				C301.238,383,255,359.881,255,340.333v-24.398c0.265,0.15,0.537,0.295,0.803,0.444c0.438,0.245,0.877,0.489,1.32,0.73
				c0.421,0.229,0.846,0.455,1.272,0.681c0.447,0.237,0.895,0.474,1.347,0.707c0.431,0.223,0.865,0.443,1.3,0.662
				c0.457,0.231,0.915,0.46,1.378,0.688c0.44,0.216,0.883,0.43,1.328,0.643c0.468,0.224,0.937,0.448,1.41,0.669
				c0.447,0.209,0.897,0.416,1.349,0.621c0.479,0.218,0.96,0.435,1.444,0.65c0.456,0.203,0.915,0.403,1.376,0.602
				c0.488,0.211,0.977,0.421,1.47,0.628c0.466,0.196,0.935,0.391,1.405,0.584c0.496,0.204,0.994,0.406,1.495,0.606
				c0.475,0.19,0.952,0.378,1.431,0.565c0.505,0.197,1.012,0.392,1.522,0.585c0.484,0.184,0.97,0.366,1.458,0.546
				c0.513,0.19,1.029,0.377,1.546,0.563c0.492,0.177,0.985,0.352,1.48,0.525c0.522,0.182,1.046,0.363,1.572,0.542
				c0.501,0.17,1.003,0.34,1.509,0.507c0.529,0.175,1.06,0.347,1.593,0.518c0.509,0.163,1.018,0.326,1.531,0.486
				c0.539,0.168,1.08,0.334,1.623,0.498c0.514,0.156,1.029,0.311,1.546,0.463c0.547,0.161,1.098,0.319,1.649,0.477
				c0.521,0.149,1.043,0.297,1.568,0.443c0.555,0.154,1.114,0.305,1.673,0.455c0.527,0.142,1.055,0.283,1.586,0.421
				c0.566,0.147,1.135,0.291,1.704,0.434c0.531,0.134,1.062,0.267,1.596,0.397c0.573,0.14,1.15,0.276,1.728,0.412
				c0.539,0.127,1.078,0.254,1.62,0.377c0.579,0.132,1.161,0.259,1.743,0.387c0.547,0.12,1.093,0.24,1.642,0.357
				c0.585,0.124,1.174,0.244,1.763,0.364c0.552,0.112,1.103,0.226,1.658,0.335c0.594,0.117,1.191,0.229,1.789,0.341
				c0.557,0.105,1.113,0.211,1.672,0.312c0.601,0.109,1.205,0.213,1.809,0.318c0.561,0.097,1.122,0.196,1.686,0.289
				c0.608,0.101,1.219,0.197,1.83,0.294c0.567,0.09,1.133,0.181,1.703,0.268c0.615,0.093,1.234,0.181,1.853,0.27
				c0.569,0.082,1.137,0.166,1.708,0.244c0.626,0.086,1.256,0.166,1.885,0.247c0.57,0.074,1.139,0.15,1.711,0.22
				c0.635,0.078,1.273,0.15,1.91,0.223c0.572,0.066,1.142,0.134,1.716,0.196c0.644,0.07,1.293,0.134,1.94,0.199
				c0.572,0.058,1.142,0.118,1.716,0.173c0.655,0.062,1.314,0.118,1.972,0.175c0.57,0.05,1.139,0.102,1.711,0.149
				c0.67,0.054,1.344,0.101,2.016,0.151c0.564,0.042,1.127,0.086,1.693,0.124c0.693,0.047,1.39,0.086,2.085,0.127
				c0.55,0.033,1.097,0.069,1.648,0.099c0.708,0.038,1.42,0.068,2.13,0.101c0.545,0.025,1.089,0.054,1.636,0.076
				c0.754,0.03,1.511,0.052,2.267,0.077c0.503,0.016,1.005,0.036,1.509,0.05c0.864,0.023,1.732,0.037,2.599,0.053
				c0.403,0.007,0.803,0.019,1.206,0.024c1.272,0.017,2.547,0.026,3.826,0.026s2.554-0.009,3.826-0.026
				c0.403-0.005,0.804-0.017,1.206-0.024c0.867-0.015,1.735-0.029,2.599-0.053c0.504-0.013,1.006-0.034,1.509-0.05
				c0.756-0.024,1.514-0.046,2.267-0.077c0.547-0.022,1.09-0.051,1.636-0.076c0.711-0.033,1.422-0.063,2.13-0.101
				c0.551-0.03,1.099-0.066,1.648-0.099c0.695-0.041,1.392-0.081,2.085-0.127c0.566-0.038,1.129-0.083,1.693-0.124
				c0.673-0.049,1.346-0.097,2.016-0.151c0.572-0.046,1.141-0.099,1.711-0.149c0.658-0.057,1.317-0.113,1.972-0.175
				c0.574-0.054,1.144-0.115,1.716-0.173c0.647-0.066,1.295-0.129,1.94-0.199c0.574-0.062,1.144-0.131,1.716-0.196
				c0.637-0.074,1.276-0.145,1.91-0.223c0.572-0.07,1.141-0.146,1.711-0.22c0.629-0.081,1.259-0.162,1.885-0.247
				c0.571-0.078,1.139-0.162,1.708-0.244c0.618-0.089,1.237-0.177,1.853-0.27c0.57-0.086,1.136-0.178,1.703-0.268
				c0.611-0.097,1.222-0.193,1.83-0.294c0.564-0.094,1.124-0.192,1.686-0.289c0.604-0.105,1.208-0.209,1.809-0.318
				c0.56-0.101,1.116-0.207,1.672-0.312c0.597-0.113,1.195-0.224,1.789-0.341c0.555-0.109,1.106-0.222,1.658-0.335
				c0.589-0.12,1.178-0.24,1.763-0.364c0.551-0.117,1.098-0.237,1.645-0.357c0.581-0.127,1.161-0.255,1.738-0.386
				c0.544-0.124,1.085-0.251,1.625-0.379c0.576-0.136,1.152-0.271,1.724-0.411c0.535-0.13,1.066-0.264,1.598-0.398
				c0.569-0.143,1.137-0.286,1.701-0.433c0.531-0.138,1.06-0.28,1.588-0.422c0.559-0.15,1.117-0.301,1.672-0.454
				c0.525-0.145,1.047-0.294,1.568-0.443c0.551-0.157,1.102-0.316,1.649-0.477c0.518-0.152,1.032-0.308,1.546-0.463
				c0.543-0.165,1.084-0.33,1.623-0.498c0.512-0.16,1.022-0.323,1.531-0.486c0.533-0.171,1.064-0.344,1.593-0.518
				c0.505-0.167,1.007-0.336,1.509-0.507c0.526-0.179,1.05-0.359,1.572-0.542c0.496-0.173,0.989-0.349,1.48-0.525
				c0.517-0.186,1.033-0.373,1.546-0.563c0.489-0.181,0.975-0.363,1.46-0.547c0.508-0.193,1.014-0.387,1.518-0.584
				c0.481-0.187,0.959-0.376,1.436-0.567c0.499-0.2,0.996-0.401,1.491-0.605c0.471-0.194,0.94-0.388,1.407-0.585
				c0.492-0.207,0.982-0.417,1.469-0.628c0.461-0.199,0.919-0.4,1.376-0.602c0.484-0.215,0.964-0.432,1.443-0.65
				c0.452-0.206,0.903-0.413,1.351-0.622c0.471-0.22,0.939-0.443,1.406-0.667c0.446-0.214,0.891-0.429,1.333-0.646
				c0.461-0.226,0.917-0.455,1.373-0.685c0.437-0.22,0.873-0.441,1.305-0.665c0.45-0.233,0.896-0.469,1.342-0.705
				c0.428-0.227,0.854-0.454,1.277-0.684c0.442-0.24,0.878-0.483,1.315-0.727c0.268-0.149,0.541-0.295,0.807-0.446v24.398
				C468.333,359.881,422.095,383,361.667,383z M361.667,297.667C301.238,297.667,255,274.547,255,255c0-2.571,1.05-5.52,3.513-8.992
				c0.002-0.002,0.003-0.005,0.005-0.007c0.002-0.003,0.004-0.006,0.006-0.008c12.381-17.49,49.591-31.733,93.98-33.478
				c0.09-0.004,0.179-0.008,0.269-0.011c1.346-0.051,2.699-0.089,4.057-0.117c0.251-0.005,0.504-0.009,0.756-0.013
				c1.355-0.024,2.714-0.039,4.081-0.039c1.088,0,2.171,0.01,3.253,0.025c0.334,0.005,0.666,0.012,1,0.018
				c0.762,0.014,1.522,0.031,2.281,0.052c0.368,0.01,0.736,0.021,1.102,0.033c0.774,0.025,1.545,0.055,2.315,0.087
				c0.306,0.013,0.614,0.024,0.919,0.038c1.045,0.048,2.086,0.103,3.123,0.165c0.25,0.015,0.498,0.033,0.748,0.049
				c0.796,0.05,1.59,0.104,2.381,0.162c0.393,0.029,0.785,0.06,1.176,0.091c0.661,0.052,1.32,0.107,1.978,0.165
				c0.4,0.035,0.8,0.07,1.198,0.107c0.748,0.07,1.493,0.144,2.235,0.221c0.278,0.029,0.559,0.055,0.836,0.085
				c0.972,0.104,1.939,0.215,2.903,0.331c0.36,0.043,0.717,0.09,1.075,0.134c0.672,0.084,1.341,0.171,2.008,0.261
				c0.35,0.047,0.7,0.095,1.049,0.144c0.8,0.112,1.597,0.228,2.39,0.348c0.177,0.027,0.355,0.052,0.531,0.079
				c23.887,3.687,44.429,11.095,58.062,20.854c0.962,0.689,1.967,1.283,3.001,1.793c7.129,5.668,11.102,11.7,11.102,17.426
				C468.333,274.547,422.095,297.667,361.667,297.667z"/>
		</g>
	</g>
</g>
<g>
</g>
<g>
</g>
<g>
</g>
<g>
</g>
<g>
</g>
<g>
</g>
<g>
</g>
<g>
</g>
<g>
</g>
<g>
</g>
<g>
</g>
<g>
</g>
<g>
</g>
<g>
</g>
<g>
</g>
</svg>
