<?xml version="1.0" encoding="utf-8"?>
<!-- Generator: Adobe Illustrator 22.1.0, SVG Export Plug-In . SVG Version: 6.00 Build 0)  -->
<svg version="1.1" id="Layer_1" xmlns="http://www.w3.org/2000/svg" xmlns:xlink="http://www.w3.org/1999/xlink" x="0px" y="0px"
	 viewBox="0 0 24 24" style="enable-background:new 0 0 24 24;" xml:space="preserve">
<style type="text/css">
	.st0{fill:#2EBED7;}
</style>
<g>
	<g>
		<path class="st0" d="M19.6,19.8H4.4c-0.2,0-0.5-0.2-0.5-0.5v-2.1c0-1.9,1.5-3.5,3.5-3.5h0.7c0.7,0,1.4-0.6,1.4-1.3l0,0
			C8.6,11.9,8.1,11,8.1,10V7.1c0-1.6,1.3-2.9,2.9-2.9h1.9c1.6,0,2.9,1.3,2.9,2.9V10c0,0.9-0.5,1.8-1.3,2.4l0,0
			c0,0.8,0.6,1.3,1.4,1.3h0.7c1.9,0,3.5,1.6,3.5,3.5v2.1C20.1,19.6,19.9,19.8,19.6,19.8z M4.9,18.9h14.4v-1.6c0-1.4-1.1-2.5-2.5-2.5
			H16c-1.3,0-2.3-1-2.3-2.3v-0.3c0-0.1,0.1-0.3,0.3-0.4c0.6-0.3,1-1,1-1.7V7.2c0-1.1-0.9-2-2-2h-1.9c-1.1,0-2,0.9-2,2v2.9
			c0,0.7,0.4,1.4,1,1.7c0.2,0.1,0.3,0.3,0.3,0.4v0.3c0,1.3-1,2.3-2.3,2.3H7.4c-1.4,0-2.5,1.1-2.5,2.5V18.9z"/>
	</g>
</g>
</svg>
