<?xml version="1.0" encoding="utf-8"?>
<!-- Generator: Adobe Illustrator 22.1.0, SVG Export Plug-In . SVG Version: 6.00 Build 0)  -->
<svg version="1.1" id="Capa_1" xmlns="http://www.w3.org/2000/svg" xmlns:xlink="http://www.w3.org/1999/xlink" x="0px" y="0px"
	 viewBox="0 0 512.2 512.2" style="enable-background:new 0 0 512.2 512.2;" xml:space="preserve">
<style type="text/css">
	.st0{fill:#2EBED7;}
</style>
<g>
	<g>
		<path class="st0" d="M511.8,170.2c-0.1-1.8-0.3-3.2-0.4-4.1c-7.2-81.1-66.7-145.4-144-145.4c-44.8,0-85.7,21.2-112.4,55.5
			c-26.2-34.6-65.5-55.5-110-55.5c-77,0-136.4,63.8-144,145.8c-0.1,1-0.3,2.1-0.4,3.5c-1.3,13.3-0.2,30.8,4.8,52.2
			c10.7,45.5,35.8,86.9,71.2,119l164.8,144.9c8,7.1,20,7.1,28.1,0.1l166-144.7c39.1-40.7,62.4-77.4,71.6-119.6
			C511.8,200.7,512.8,183.3,511.8,170.2z M465.5,212.8c-7.3,33.2-26.6,63.6-59.4,97.8L255.5,441.8L105,309.4
			c-28.9-26.2-49.4-60.1-58.1-96.9c-4-16.7-4.7-29.6-3.8-39.2l0.3-2.1C48.8,109.4,91.5,63.4,145,63.4c39.8,0,73.7,24.3,90.2,63.3
			c7.3,17.4,32,17.4,39.3,0c16.1-38.2,52.4-63.3,93-63.3c53.5,0,96.1,46,101.6,107.8c0.1,1.2,0.2,1.6,0.2,2.3
			C470,182.5,469.2,195.8,465.5,212.8z"/>
	</g>
</g>
</svg>
