<?xml version="1.0" encoding="utf-8"?>
<!-- Generator: Adobe Illustrator 22.1.0, SVG Export Plug-In . SVG Version: 6.00 Build 0)  -->
<svg version="1.1" id="Layer_1" xmlns="http://www.w3.org/2000/svg" xmlns:xlink="http://www.w3.org/1999/xlink" x="0px" y="0px"
	 viewBox="0 0 24 24" style="enable-background:new 0 0 24 24;" xml:space="preserve">
<style type="text/css">
	.st0{fill:#2EBED7;}
</style>
<g>
	<g>
		<path class="st0" d="M22.3,22.8H7c-0.2,0-0.5-0.2-0.5-0.5v-2.1c0-1.9,1.5-3.5,3.5-3.5h0.7c0.7,0,1.4-0.6,1.4-1.3l0,0
			c-0.8-0.5-1.3-1.4-1.3-2.4v-2.9c0-1.6,1.3-2.9,2.9-2.9h1.9c1.6,0,2.9,1.3,2.9,2.9V13c0,0.9-0.5,1.8-1.3,2.4l0,0
			c0,0.8,0.6,1.3,1.4,1.3h0.7c1.9,0,3.5,1.6,3.5,3.5v2.1C22.7,22.6,22.5,22.8,22.3,22.8z M7.5,21.9h14.4v-1.6c0-1.4-1.1-2.5-2.5-2.5
			h-0.7c-1.3,0-2.3-1-2.3-2.3v-0.3c0-0.1,0.1-0.3,0.3-0.4c0.6-0.3,1-1,1-1.7v-2.9c0-1.1-0.9-2-2-2h-1.9c-1.1,0-2,0.9-2,2v2.9
			c0,0.7,0.4,1.4,1,1.7c0.2,0.1,0.3,0.3,0.3,0.4v0.3c0,1.3-1,2.3-2.3,2.3H10c-1.4,0-2.5,1.1-2.5,2.5V21.9z"/>
	</g>
	<g>
		<path class="st0" d="M6.3,10.6c-2.6,0-4.7-2.1-4.7-4.6c0-2.6,2.1-4.7,4.7-4.7C8.9,1.3,11,3.4,11,6S8.9,10.6,6.3,10.6z M6.3,2.2
			C4.2,2.2,2.5,3.9,2.5,6s1.7,3.8,3.8,3.8S10,8.1,10,6S8.4,2.2,6.3,2.2z"/>
	</g>
	<g>
		<g>
			<rect x="5.8" y="3.9" class="st0" width="0.9" height="4.2"/>
		</g>
		<g>
			<rect x="4.2" y="5.5" class="st0" width="4.2" height="0.9"/>
		</g>
	</g>
</g>
</svg>
