<?xml version="1.0" encoding="utf-8"?>
<!-- Generator: Adobe Illustrator 22.1.0, SVG Export Plug-In . SVG Version: 6.00 Build 0)  -->
<svg version="1.1" id="Layer_1" xmlns="http://www.w3.org/2000/svg" xmlns:xlink="http://www.w3.org/1999/xlink" x="0px" y="0px"
	 viewBox="0 0 24 24" style="enable-background:new 0 0 24 24;" xml:space="preserve">
<style type="text/css">
	.st0{fill:#2EBED7;}
</style>
<g>
	<g>
		<path class="st0" d="M22.2,22.8H6.9c-0.2,0-0.4-0.2-0.4-0.5v-2.1c0-1.9,1.5-3.5,3.4-3.5h0.7c0.8,0,1.4-0.6,1.4-1.3l0,0
			c-0.8-0.5-1.3-1.4-1.3-2.4v-2.9c0-1.6,1.3-2.9,2.9-2.9h1.9c1.6,0,2.9,1.3,2.9,2.9V13c0,0.9-0.4,1.8-1.3,2.4l0,0
			c0,0.8,0.6,1.3,1.4,1.3h0.7c1.9,0,3.5,1.6,3.5,3.5v2.1C22.6,22.6,22.4,22.8,22.2,22.8z M7.3,21.9h14.4v-1.6c0-1.4-1.1-2.5-2.5-2.5
			h-0.7c-1.3,0-2.3-1-2.3-2.3v-0.3c0-0.1,0.1-0.3,0.2-0.4c0.7-0.3,1.1-1,1.1-1.7v-2.9c0-1.1-0.9-2-2-2h-1.9c-1.1,0-2,0.9-2,2v2.9
			c0,0.7,0.4,1.4,1,1.7c0.2,0.1,0.3,0.3,0.3,0.4v0.3c0,1.3-1,2.3-2.3,2.3H9.9c-1.4,0-2.5,1.1-2.5,2.5L7.3,21.9L7.3,21.9z"/>
	</g>
	<g>
		<path class="st0" d="M5.8,7.7c-0.1,0-0.2,0-0.3-0.1L3.9,6l0.6-0.7l1.2,1.2l3.5-3.4l0.6,0.6L6.1,7.5C6,7.6,5.9,7.7,5.8,7.7z"/>
	</g>
	<g>
		<path class="st0" d="M6.2,10.6c-2.6,0-4.6-2.1-4.6-4.6c0-2.6,2.1-4.7,4.6-4.7c2.6,0,4.7,2.1,4.7,4.7C10.8,8.6,8.7,10.6,6.2,10.6z
			 M6.2,2.2C4.1,2.2,2.4,3.9,2.4,6s1.7,3.8,3.8,3.8S9.9,8.1,9.9,6S8.2,2.2,6.2,2.2z"/>
	</g>
</g>
</svg>
