<?xml version="1.0" encoding="utf-8"?>
<!-- Generator: Adobe Illustrator 22.1.0, SVG Export Plug-In . SVG Version: 6.00 Build 0)  -->
<svg version="1.1" id="Layer_1" xmlns="http://www.w3.org/2000/svg" xmlns:xlink="http://www.w3.org/1999/xlink" x="0px" y="0px"
	 viewBox="0 0 222.2 222.2" style="enable-background:new 0 0 222.2 222.2;" xml:space="preserve">
<style type="text/css">
	.st0{fill:#CCCCCC;}
	.st1{fill:#ECF0F1;}
</style>
<g id="Layer_2">
	<rect x="0.1" y="-0.4" class="st0" width="222" height="222"/>
</g>
<g>
	<g>
		<path class="st1" d="M72.6,195.4l-39.2,21.4c-2.3,1.3-4.4,2.8-6.3,4.5c22.8,19.3,52.3,30.9,84.5,30.9c32,0,61.3-11.4,84-30.4
			c-2.1-1.8-4.4-3.4-6.9-4.6l-41.9-21c-5.4-2.7-8.8-8.2-8.8-14.3v-16.5c1.2-1.3,2.5-3.1,4-5.1c5.7-8.1,10-17,13-26.3
			c5.4-1.7,9.3-6.6,9.3-12.5v-17.6c0-3.9-1.7-7.3-4.4-9.7V68.7c0,0,5.2-39.5-48.3-39.5S63.4,68.7,63.4,68.7v25.4
			c-2.7,2.4-4.4,5.9-4.4,9.7v17.6c0,4.6,2.4,8.7,6.1,11.1c4.4,19.1,15.9,32.9,15.9,32.9v16.1C81,187.2,77.8,192.6,72.6,195.4z"/>
	</g>
</g>
</svg>
