<?xml version="1.0" encoding="utf-8"?>
<!-- Generator: Adobe Illustrator 22.1.0, SVG Export Plug-In . SVG Version: 6.00 Build 0)  -->
<svg version="1.1" id="Layer_1" xmlns="http://www.w3.org/2000/svg" xmlns:xlink="http://www.w3.org/1999/xlink" x="0px" y="0px"
	 viewBox="0 0 573.2 246" style="enable-background:new 0 0 573.2 246;" xml:space="preserve">
<style type="text/css">
	.st0{fill:#CCCCCC;}
	.st1{fill:#FFFFFF;}
</style>
<g>
	<rect x="0.1" y="0" class="st0" width="573" height="246"/>
</g>
<g>
	<path class="st1" d="M266.2,84.5c-3.9,1.5-6.7,5.2-6.7,9.6c0,1.7,0.5,3.3,1.2,4.7c-3.1,1.2-5.3,4.2-5.3,7.7c0,3.5,2.2,6.5,5.3,7.7
		c-0.7,1.4-1.2,3-1.2,4.7c0,4.4,2.8,8.2,6.7,9.6c-0.3,0.9-0.5,1.8-0.5,2.8c0,4.6,3.7,8.3,8.3,8.3c1,0,2-0.2,2.9-0.6
		c1.3,2.8,4.1,4.7,7.4,4.7c4.6,0,8.3-3.7,8.3-8.3V77.6c0-4.6-3.7-8.3-8.3-8.3c-3.3,0-6.1,1.9-7.4,4.7c-0.9-0.3-1.9-0.6-2.9-0.6
		c-4.6,0-8.3,3.7-8.3,8.3C265.7,82.7,265.9,83.6,266.2,84.5z M274,77.6c2.3,0,4.1,1.9,4.1,4.1h4.1c0-2-0.7-3.8-1.9-5.2
		c0.5-1.7,2.1-3,4-3c2.3,0,4.1,1.9,4.1,4.1v57.8c0,2.3-1.9,4.1-4.1,4.1c-1.9,0-3.5-1.3-4-3c1.2-1.4,1.9-3.2,1.9-5.2h-4.1
		c0,2.3-1.9,4.1-4.1,4.1c-2.3,0-4.1-1.9-4.1-4.1c0-2.3,1.9-4.1,4.1-4.1V123c-2,0-3.8,0.8-5.3,1.9c-2.9-0.5-5.1-3.1-5.1-6.1
		c0-3.4,2.8-6.2,6.2-6.2c3.4,0,6.2,2.8,6.2,6.2h4.1c0-5.7-4.6-10.3-10.3-10.3c-2.3,0-4.5,0.8-6.2,2.1v-0.1c-2.3,0-4.1-1.9-4.1-4.1
		s1.9-4.1,4.1-4.1v-0.1c1.7,1.3,3.9,2.1,6.2,2.1c5.7,0,10.3-4.6,10.3-10.3H276c0,3.4-2.8,6.2-6.2,6.2c-3.4,0-6.2-2.8-6.2-6.2
		c0-3,2.2-5.5,5.1-6.1c1.4,1.2,3.3,1.9,5.3,1.9v-4.1c-2.3,0-4.1-1.9-4.1-4.1S271.7,77.6,274,77.6z"/>
	<path class="st1" d="M315.2,73.5c-1,0-2,0.2-2.9,0.6c-1.3-2.8-4.1-4.7-7.4-4.7c-4.6,0-8.3,3.7-8.3,8.3v57.8c0,4.6,3.7,8.3,8.3,8.3
		c3.3,0,6.1-1.9,7.4-4.7c0.9,0.3,1.9,0.6,2.9,0.6c4.6,0,8.3-3.7,8.3-8.3c0-1-0.2-1.9-0.5-2.8c3.9-1.5,6.7-5.2,6.7-9.6
		c0-1.7-0.5-3.3-1.2-4.7c3.1-1.2,5.3-4.2,5.3-7.7c0-3.5-2.2-6.5-5.3-7.7c0.7-1.4,1.2-3,1.2-4.7c0-4.4-2.8-8.2-6.7-9.6
		c0.3-0.9,0.5-1.8,0.5-2.8C323.5,77.2,319.8,73.5,315.2,73.5z M325.6,94.1c0,3.4-2.8,6.2-6.2,6.2c-3.4,0-6.2-2.8-6.2-6.2h-4.1
		c0,5.7,4.6,10.3,10.3,10.3c2.3,0,4.5-0.8,6.2-2.1v0.1c2.3,0,4.1,1.9,4.1,4.1s-1.9,4.1-4.1,4.1v0.1c-1.7-1.3-3.9-2.1-6.2-2.1
		c-5.7,0-10.3,4.6-10.3,10.3h4.1c0-3.4,2.8-6.2,6.2-6.2c3.4,0,6.2,2.8,6.2,6.2c0,3-2.2,5.5-5.1,6.1c-1.4-1.2-3.3-1.9-5.3-1.9v4.1
		c2.3,0,4.1,1.9,4.1,4.1c0,2.3-1.9,4.1-4.1,4.1c-2.3,0-4.1-1.9-4.1-4.1H307c0,2,0.7,3.8,1.9,5.2c-0.5,1.8-2.1,3-4,3
		c-2.3,0-4.1-1.9-4.1-4.1V77.6c0-2.3,1.9-4.1,4.1-4.1c1.9,0,3.5,1.3,4,3c-1.2,1.4-1.9,3.2-1.9,5.2h4.1c0-2.3,1.9-4.1,4.1-4.1
		c2.3,0,4.1,1.9,4.1,4.1s-1.9,4.1-4.1,4.1V90c2,0,3.8-0.8,5.3-1.9C323.4,88.6,325.6,91.1,325.6,94.1z"/>
	<path class="st1" d="M327.1,71.9c-9.6-9.1-22.3-13.6-35.5-12.8l0.3,4.1c12.1-0.8,23.6,3.4,32.5,11.7c8.8,8.3,13.7,19.5,13.7,31.6
		c0,14.6-7.3,28.1-19.4,36.1c-4.2,2.8-7.4,6.8-9.3,11.3h-29.3c-2-4.6-5.2-8.6-9.4-11.4c-12.5-8.4-19.7-22.4-19.3-37.4l-4.1-0.1
		c-0.5,16.5,7.4,31.8,21.1,41c3,2,5.5,4.8,7.1,8h-5.6v4.1h7.2c0.4,1.3,0.7,2.7,0.9,4.1h-4v4.1h4.1v6.2c0,1.1,0.9,2.1,2.1,2.1h2.1
		c0,6.8,5.6,12.4,12.4,12.4c6.8,0,12.4-5.6,12.4-12.4h2.1c1.1,0,2.1-0.9,2.1-2.1v-6.2h4.1v-4.1h-4c0.1-1.4,0.4-2.8,0.8-4.1h7.3V154
		h-5.7c1.7-3.2,4.1-5.9,7.1-7.9c13.3-8.8,21.3-23.6,21.3-39.6C342.1,93.4,336.6,80.8,327.1,71.9z M294.6,182.9
		c-4.6,0-8.3-3.7-8.3-8.3h16.5C302.9,179.2,299.2,182.9,294.6,182.9z M307,170.5h-24.8v-4.1H307V170.5z M307.1,162.2H282
		c-0.1-1.4-0.4-2.8-0.7-4.1h26.4C307.4,159.4,307.3,160.8,307.1,162.2z"/>
	<path class="st1" d="M245.1,73.5c4.6,0,8.3,3.7,8.3,8.3c0,1.1,0.9,2.1,2.1,2.1c1.1,0,2.1-0.9,2.1-2.1c0-4.6,3.7-8.3,8.3-8.3
		c1.1,0,2.1-0.9,2.1-2.1c0-1.1-0.9-2.1-2.1-2.1c-4.6,0-8.3-3.7-8.3-8.3c0-1.1-0.9-2.1-2.1-2.1c-1.1,0-2.1,0.9-2.1,2.1
		c0,4.6-3.7,8.3-8.3,8.3c-1.1,0-2.1,0.9-2.1,2.1C243,72.5,243.9,73.5,245.1,73.5z M255.4,67.9c0.9,1.4,2.1,2.6,3.5,3.5
		c-1.4,0.9-2.6,2.1-3.5,3.5c-0.9-1.4-2.1-2.6-3.5-3.5C253.3,70.5,254.5,69.3,255.4,67.9z"/>
	<path class="st1" d="M253.3,94.1c1.1,0,2.1-0.9,2.1-2.1c0-1.1-0.9-2.1-2.1-2.1c-4.6,0-8.3-3.7-8.3-8.3c0-1.1-0.9-2.1-2.1-2.1
		c-1.1,0-2.1,0.9-2.1,2.1c0,4.6-3.7,8.3-8.3,8.3c-1.1,0-2.1,0.9-2.1,2.1c0,1.1,0.9,2.1,2.1,2.1c4.6,0,8.3,3.7,8.3,8.3
		c0,1.1,0.9,2.1,2.1,2.1c1.1,0,2.1-0.9,2.1-2.1C245.1,97.8,248.8,94.1,253.3,94.1z M243,95.5c-0.9-1.4-2.1-2.6-3.5-3.5
		c1.4-0.9,2.6-2.1,3.5-3.5c0.9,1.4,2.1,2.6,3.5,3.5C245.1,93,243.9,94.1,243,95.5z"/>
</g>
</svg>
